Onboard-Regular.ufo
<glyph name="quotedbl" format="2">
  <advance width="276"/>
  <unicode hex="0022"/>
  <outline>
    <contour>
      <point x="33" y="637" type="line"/>
      <point x="37" y="645"/>
      <point x="48" y="666"/>
      <point x="55" y="675" type="qcurve" smooth="yes"/>
      <point x="62" y="683"/>
      <point x="75" y="689"/>
      <point x="79" y="689" type="qcurve" smooth="yes"/>
      <point x="85" y="689"/>
      <point x="91" y="686" type="qcurve" smooth="yes"/>
      <point x="105" y="677"/>
      <point x="119" y="665"/>
      <point x="125" y="655"/>
      <point x="126" y="647"/>
      <point x="126" y="644" type="qcurve" smooth="yes"/>
      <point x="126" y="636"/>
      <point x="121" y="619" type="qcurve" smooth="yes"/>
      <point x="116" y="605"/>
      <point x="101" y="544"/>
      <point x="94" y="512" type="qcurve" smooth="yes"/>
      <point x="90" y="493"/>
      <point x="82" y="454"/>
      <point x="77" y="433" type="qcurve"/>
      <point x="57" y="433" type="line"/>
    </contour>
    <contour>
      <point x="159" y="637" type="line"/>
      <point x="163" y="645"/>
      <point x="174" y="666"/>
      <point x="181" y="675" type="qcurve" smooth="yes"/>
      <point x="188" y="683"/>
      <point x="201" y="689"/>
      <point x="205" y="689" type="qcurve" smooth="yes"/>
      <point x="211" y="689"/>
      <point x="217" y="686" type="qcurve" smooth="yes"/>
      <point x="231" y="677"/>
      <point x="245" y="665"/>
      <point x="251" y="655"/>
      <point x="252" y="647"/>
      <point x="252" y="644" type="qcurve" smooth="yes"/>
      <point x="252" y="636"/>
      <point x="247" y="619" type="qcurve" smooth="yes"/>
      <point x="242" y="605"/>
      <point x="227" y="544"/>
      <point x="220" y="512" type="qcurve" smooth="yes"/>
      <point x="216" y="493"/>
      <point x="208" y="454"/>
      <point x="203" y="433" type="qcurve"/>
      <point x="183" y="433" type="line"/>
    </contour>
  </outline>
</glyph>
<glyph name="dollar" format="2">
  <advance width="470"/>
  <unicode hex="0024"/>
  <outline>
    <contour>
      <point x="51" y="238" type="line"/>
      <point x="66" y="238" type="line"/>
      <point x="72" y="161"/>
      <point x="121" y="52"/>
      <point x="173" y="28" type="qcurve"/>
      <point x="174" y="27"/>
      <point x="178" y="25" type="qcurve"/>
      <point x="178" y="257" type="line"/>
      <point x="144" y="276"/>
      <point x="116" y="302" type="qcurve" smooth="yes"/>
      <point x="85" y="330"/>
      <point x="46" y="410"/>
      <point x="46" y="468" type="qcurve" smooth="yes"/>
      <point x="46" y="477"/>
      <point x="47" y="499"/>
      <point x="49" y="510" type="qcurve"/>
      <point x="59" y="589"/>
      <point x="104" y="631" type="qcurve"/>
      <point x="135" y="658"/>
      <point x="178" y="668" type="qcurve"/>
      <point x="178" y="712" type="line"/>
      <point x="198" y="712" type="line"/>
      <point x="198" y="672" type="line"/>
      <point x="204" y="673"/>
      <point x="216" y="673"/>
      <point x="223" y="674" type="qcurve"/>
      <point x="232" y="674"/>
      <point x="249" y="673"/>
      <point x="257" y="672" type="qcurve"/>
      <point x="257" y="712" type="line"/>
      <point x="277" y="712" type="line"/>
      <point x="277" y="667" type="line"/>
      <point x="285" y="666"/>
      <point x="293" y="661" type="qcurve"/>
      <point x="320" y="648"/>
      <point x="339" y="634" type="qcurve" smooth="yes"/>
      <point x="356" y="620"/>
      <point x="367" y="620" type="qcurve" smooth="yes"/>
      <point x="381" y="620"/>
      <point x="387" y="647"/>
      <point x="387" y="659" type="qcurve"/>
      <point x="403" y="659" type="line"/>
      <point x="403" y="458" type="line"/>
      <point x="386" y="458" type="line"/>
      <point x="375" y="525"/>
      <point x="331" y="619"/>
      <point x="288" y="640" type="qcurve"/>
      <point x="283" y="644"/>
      <point x="277" y="645" type="qcurve"/>
      <point x="277" y="387" type="line"/>
      <point x="282" y="385"/>
      <point x="294" y="379"/>
      <point x="300" y="377" type="qcurve"/>
      <point x="325" y="364"/>
      <point x="370" y="331"/>
      <point x="406" y="286"/>
      <point x="430" y="228"/>
      <point x="434" y="191" type="qcurve"/>
      <point x="434" y="190" type="line"/>
      <point x="434" y="185" type="line"/>
      <point x="434" y="184" type="line"/>
      <point x="434" y="182" type="line"/>
      <point x="434" y="181" type="line"/>
      <point x="434" y="179" type="line"/>
      <point x="434" y="120"/>
      <point x="378" y="23"/>
      <point x="326" y="2" type="qcurve" smooth="yes"/>
      <point x="303" y="-8"/>
      <point x="277" y="-11" type="qcurve"/>
      <point x="277" y="-64" type="line"/>
      <point x="257" y="-64" type="line"/>
      <point x="257" y="-13" type="line"/>
      <point x="256" y="-13" type="line"/>
      <point x="254" y="-13" type="line"/>
      <point x="253" y="-13" type="line"/>
      <point x="252" y="-13" type="line"/>
      <point x="251" y="-13" type="line"/>
      <point x="222" y="-13"/>
      <point x="198" y="-7" type="qcurve"/>
      <point x="198" y="-64" type="line"/>
      <point x="178" y="-64" type="line"/>
      <point x="178" y="0" type="line"/>
      <point x="151" y="10"/>
      <point x="130" y="21" type="qcurve" smooth="yes"/>
      <point x="118" y="28"/>
      <point x="97" y="37"/>
      <point x="87" y="37" type="qcurve" smooth="yes"/>
      <point x="76" y="37"/>
      <point x="67" y="5"/>
      <point x="66" y="-7" type="qcurve"/>
      <point x="51" y="-7" type="line"/>
    </contour>
    <contour>
      <point x="198" y="420" type="line"/>
      <point x="206" y="416"/>
      <point x="224" y="410"/>
      <point x="233" y="406" type="qcurve"/>
      <point x="234" y="405" type="line"/>
      <point x="236" y="405" type="line"/>
      <point x="238" y="404" type="line"/>
      <point x="239" y="403" type="line"/>
      <point x="241" y="403" type="line"/>
      <point x="243" y="402" type="line"/>
      <point x="244" y="401" type="line"/>
      <point x="246" y="401" type="line"/>
      <point x="247" y="400" type="line"/>
      <point x="248" y="400" type="line"/>
      <point x="249" y="399" type="line"/>
      <point x="251" y="399" type="line"/>
      <point x="252" y="398" type="line"/>
      <point x="253" y="398" type="line"/>
      <point x="254" y="397" type="line"/>
      <point x="256" y="397" type="line"/>
      <point x="257" y="396" type="line"/>
      <point x="257" y="651" type="line"/>
      <point x="240" y="654"/>
      <point x="221" y="654" type="qcurve" smooth="yes"/>
      <point x="215" y="654"/>
      <point x="203" y="654"/>
      <point x="198" y="653" type="qcurve"/>
    </contour>
    <contour>
      <point x="178" y="649" type="line"/>
      <point x="176" y="648"/>
      <point x="173" y="648"/>
      <point x="171" y="647" type="qcurve" smooth="yes"/>
      <point x="134" y="636"/>
      <point x="95" y="582"/>
      <point x="95" y="544" type="qcurve" smooth="yes"/>
      <point x="95" y="540" type="line"/>
      <point x="95" y="539" type="line"/>
      <point x="95" y="538" type="line"/>
      <point x="95" y="537" type="line"/>
      <point x="95" y="536" type="line"/>
      <point x="95" y="535" type="line"/>
      <point x="95" y="534" type="line"/>
      <point x="95" y="533" type="line"/>
      <point x="97" y="506"/>
      <point x="121" y="467"/>
      <point x="140" y="453" type="qcurve" smooth="yes"/>
      <point x="156" y="440"/>
      <point x="178" y="429" type="qcurve"/>
    </contour>
    <contour>
      <point x="198" y="18" type="line"/>
      <point x="222" y="11"/>
      <point x="254" y="11" type="qcurve"/>
      <point x="255" y="11" type="line"/>
      <point x="256" y="11" type="line"/>
      <point x="257" y="11" type="line"/>
      <point x="257" y="218" type="line"/>
      <point x="256" y="219"/>
      <point x="255" y="219" type="qcurve"/>
      <point x="241" y="226"/>
      <point x="212" y="239"/>
      <point x="198" y="247" type="qcurve"/>
    </contour>
    <contour>
      <point x="277" y="13" type="line"/>
      <point x="285" y="14"/>
      <point x="300" y="18"/>
      <point x="307" y="20" type="qcurve" smooth="yes"/>
      <point x="326" y="27"/>
      <point x="350" y="50"/>
      <point x="364" y="74"/>
      <point x="369" y="98"/>
      <point x="369" y="106" type="qcurve" smooth="yes"/>
      <point x="369" y="122"/>
      <point x="365" y="135" type="qcurve" smooth="yes"/>
      <point x="357" y="164"/>
      <point x="327" y="182" type="qcurve" smooth="yes"/>
      <point x="316" y="189"/>
      <point x="291" y="202"/>
      <point x="277" y="209" type="qcurve"/>
    </contour>
  </outline>
</glyph>
<glyph name="quotesingle" format="2">
  <advance width="164"/>
  <unicode hex="0027"/>
  <outline>
    <contour>
      <point x="33" y="637" type="line"/>
      <point x="37" y="645"/>
      <point x="48" y="666"/>
      <point x="55" y="675" type="qcurve" smooth="yes"/>
      <point x="62" y="683"/>
      <point x="75" y="689"/>
      <point x="79" y="689" type="qcurve" smooth="yes"/>
      <point x="85" y="689"/>
      <point x="91" y="686" type="qcurve" smooth="yes"/>
      <point x="105" y="677"/>
      <point x="119" y="665"/>
      <point x="125" y="655"/>
      <point x="126" y="647"/>
      <point x="126" y="644" type="qcurve" smooth="yes"/>
      <point x="126" y="636"/>
      <point x="121" y="619" type="qcurve" smooth="yes"/>
      <point x="116" y="605"/>
      <point x="101" y="544"/>
      <point x="94" y="512" type="qcurve" smooth="yes"/>
      <point x="90" y="493"/>
      <point x="82" y="454"/>
      <point x="77" y="433" type="qcurve"/>
      <point x="57" y="433" type="line"/>
    </contour>
  </outline>
</glyph>
<glyph name="parenleft" format="2">
  <advance width="283"/>
  <unicode hex="0028"/>
  <outline>
    <contour>
      <point x="196" y="-115" type="qcurve" smooth="yes"/>
      <point x="145" y="-77"/>
      <point x="70" y="50"/>
      <point x="49" y="141" type="qcurve" smooth="yes"/>
      <point x="28" y="229"/>
      <point x="28" y="310" type="qcurve" smooth="yes"/>
      <point x="28" y="352"/>
      <point x="38" y="437"/>
      <point x="49" y="479" type="qcurve" smooth="yes"/>
      <point x="60" y="521"/>
      <point x="90" y="597"/>
      <point x="107" y="626" type="qcurve"/>
      <point x="125" y="654"/>
      <point x="175" y="711"/>
      <point x="196" y="728" type="qcurve"/>
      <point x="221" y="746"/>
      <point x="274" y="766"/>
      <point x="303" y="767" type="qcurve"/>
      <point x="303" y="746" type="line"/>
      <point x="264" y="744"/>
      <point x="241" y="724" type="qcurve"/>
      <point x="208" y="701"/>
      <point x="171" y="597"/>
      <point x="153" y="473"/>
      <point x="150" y="349"/>
      <point x="150" y="305" type="qcurve" smooth="yes"/>
      <point x="150" y="289"/>
      <point x="151" y="246"/>
      <point x="153" y="198"/>
      <point x="157" y="148"/>
      <point x="160" y="124" type="qcurve" smooth="yes"/>
      <point x="162" y="101"/>
      <point x="169" y="54"/>
      <point x="174" y="31" type="qcurve" smooth="yes"/>
      <point x="183" y="-12"/>
      <point x="219" y="-88"/>
      <point x="243" y="-111" type="qcurve" smooth="yes"/>
      <point x="254" y="-121"/>
      <point x="285" y="-133"/>
      <point x="303" y="-134" type="qcurve"/>
      <point x="303" y="-155" type="line"/>
      <point x="246" y="-153"/>
    </contour>
  </outline>
</glyph>
<glyph name="zero" format="2">
  <advance width="454"/>
  <unicode hex="0030"/>
  <outline>
    <contour>
      <point x="231" y="670" type="qcurve" smooth="yes"/>
      <point x="270" y="670"/>
      <point x="332" y="627"/>
      <point x="356" y="592" type="qcurve" smooth="yes"/>
      <point x="393" y="538"/>
      <point x="420" y="403"/>
      <point x="420" y="337" type="qcurve" smooth="yes"/>
      <point x="420" y="299"/>
      <point x="412" y="221"/>
      <point x="392" y="147"/>
      <point x="361" y="81"/>
      <point x="337" y="54" type="qcurve" smooth="yes"/>
      <point x="314" y="28"/>
      <point x="259" y="-6"/>
      <point x="227" y="-6" type="qcurve" smooth="yes"/>
      <point x="189" y="-6"/>
      <point x="132" y="30"/>
      <point x="108" y="63" type="qcurve" smooth="yes"/>
      <point x="87" y="91"/>
      <point x="60" y="157"/>
      <point x="44" y="229"/>
      <point x="37" y="303"/>
      <point x="37" y="339" type="qcurve" smooth="yes"/>
      <point x="37" y="414"/>
      <point x="73" y="552"/>
      <point x="118" y="606" type="qcurve" smooth="yes"/>
      <point x="141" y="634"/>
      <point x="197" y="670"/>
    </contour>
    <contour>
      <point x="230" y="655" type="qcurve" smooth="yes"/>
      <point x="198" y="655"/>
      <point x="164" y="614"/>
      <point x="154" y="579" type="qcurve" smooth="yes"/>
      <point x="148" y="556"/>
      <point x="141" y="497"/>
      <point x="138" y="436"/>
      <point x="137" y="377"/>
      <point x="137" y="353" type="qcurve" smooth="yes"/>
      <point x="137" y="330" type="line" smooth="yes"/>
      <point x="137" y="304"/>
      <point x="138" y="233"/>
      <point x="141" y="161"/>
      <point x="148" y="97"/>
      <point x="154" y="78" type="qcurve" smooth="yes"/>
      <point x="164" y="49"/>
      <point x="197" y="9"/>
      <point x="224" y="9" type="qcurve" smooth="yes"/>
      <point x="259" y="9"/>
      <point x="291" y="53"/>
      <point x="300" y="91" type="qcurve" smooth="yes"/>
      <point x="309" y="130"/>
      <point x="315" y="230"/>
      <point x="315" y="278" type="qcurve" smooth="yes"/>
      <point x="315" y="282" type="line"/>
      <point x="315" y="283" type="line"/>
      <point x="315" y="287" type="line"/>
      <point x="315" y="288" type="line"/>
      <point x="315" y="296" type="line"/>
      <point x="315" y="297" type="line"/>
      <point x="315" y="304" type="line"/>
      <point x="315" y="305" type="line"/>
      <point x="315" y="342" type="line"/>
      <point x="315" y="343" type="line"/>
      <point x="315" y="346" type="line"/>
      <point x="315" y="347" type="line"/>
      <point x="315" y="354" type="line"/>
      <point x="315" y="355" type="line"/>
      <point x="315" y="361" type="line"/>
      <point x="315" y="396" type="line" smooth="yes"/>
      <point x="315" y="441"/>
      <point x="309" y="541"/>
      <point x="301" y="577" type="qcurve" smooth="yes"/>
      <point x="293" y="614"/>
      <point x="262" y="655"/>
    </contour>
  </outline>
</glyph>
<glyph name="at" format="2">
  <advance width="796"/>
  <unicode hex="0040"/>
  <outline>
    <contour>
      <point x="775" y="273" type="qcurve" smooth="yes"/>
      <point x="775" y="238"/>
      <point x="768" y="209" type="qcurve" smooth="yes"/>
      <point x="765" y="194"/>
      <point x="753" y="155"/>
      <point x="740" y="135" type="qcurve"/>
      <point x="731" y="117"/>
      <point x="714" y="103" type="qcurve" smooth="yes"/>
      <point x="700" y="90"/>
      <point x="654" y="68"/>
      <point x="621" y="64" type="qcurve" smooth="yes"/>
      <point x="597" y="61"/>
      <point x="565" y="60"/>
      <point x="562" y="60" type="qcurve" smooth="yes"/>
      <point x="544" y="60"/>
      <point x="504" y="65"/>
      <point x="471" y="79"/>
      <point x="448" y="103"/>
      <point x="446" y="122" type="qcurve"/>
      <point x="446" y="123" type="line"/>
      <point x="429" y="114"/>
      <point x="384" y="95"/>
      <point x="357" y="89" type="qcurve" smooth="yes"/>
      <point x="330" y="83"/>
      <point x="296" y="82"/>
      <point x="291" y="82" type="qcurve" smooth="yes"/>
      <point x="278" y="82"/>
      <point x="251" y="85"/>
      <point x="237" y="87" type="qcurve"/>
      <point x="202" y="94"/>
      <point x="163" y="144"/>
      <point x="160" y="169" type="qcurve"/>
      <point x="156" y="192"/>
      <point x="156" y="210" type="qcurve" smooth="yes"/>
      <point x="156" y="232"/>
      <point x="167" y="296"/>
      <point x="184" y="334" type="qcurve" smooth="yes"/>
      <point x="201" y="372"/>
      <point x="250" y="433"/>
      <point x="281" y="448" type="qcurve" smooth="yes"/>
      <point x="323" y="469"/>
      <point x="368" y="471"/>
      <point x="375" y="471" type="qcurve" smooth="yes"/>
      <point x="399" y="471"/>
      <point x="443" y="462"/>
      <point x="479" y="449"/>
      <point x="507" y="435"/>
      <point x="514" y="431" type="qcurve"/>
      <point x="514" y="433" type="line"/>
      <point x="515" y="434" type="line"/>
      <point x="612" y="441" type="line"/>
      <point x="548" y="171" type="line" smooth="yes"/>
      <point x="544" y="156"/>
      <point x="544" y="141" type="qcurve"/>
      <point x="544" y="139" type="line"/>
      <point x="544" y="138" type="line"/>
      <point x="544" y="137" type="line"/>
      <point x="544" y="136" type="line"/>
      <point x="545" y="122"/>
      <point x="559" y="98"/>
      <point x="579" y="95" type="qcurve" smooth="yes"/>
      <point x="586" y="94"/>
      <point x="600" y="93"/>
      <point x="608" y="93" type="qcurve" smooth="yes"/>
      <point x="612" y="93"/>
      <point x="639" y="96"/>
      <point x="672" y="108"/>
      <point x="706" y="134"/>
      <point x="719" y="157" type="qcurve" smooth="yes"/>
      <point x="733" y="181"/>
      <point x="748" y="242"/>
      <point x="748" y="273" type="qcurve" smooth="yes"/>
      <point x="748" y="341"/>
      <point x="693" y="461"/>
      <point x="598" y="550"/>
      <point x="470" y="602"/>
      <point x="398" y="602" type="qcurve" smooth="yes"/>
      <point x="326" y="602"/>
      <point x="198" y="550"/>
      <point x="103" y="461"/>
      <point x="48" y="341"/>
      <point x="48" y="273" type="qcurve" smooth="yes"/>
      <point x="48" y="205"/>
      <point x="103" y="85"/>
      <point x="198" y="-4"/>
      <point x="326" y="-56"/>
      <point x="398" y="-56" type="qcurve" smooth="yes"/>
      <point x="479" y="-56"/>
      <point x="555" y="-21" type="qcurve"/>
      <point x="559" y="-19" type="line"/>
      <point x="563" y="-21" type="line"/>
      <point x="565" y="-23"/>
      <point x="571" y="-26"/>
      <point x="573" y="-28" type="qcurve"/>
      <point x="585" y="-35" type="line"/>
      <point x="573" y="-41" type="line"/>
      <point x="565" y="-44"/>
      <point x="552" y="-51"/>
      <point x="545" y="-53" type="qcurve"/>
      <point x="477" y="-81"/>
      <point x="398" y="-81" type="qcurve" smooth="yes"/>
      <point x="319" y="-81"/>
      <point x="251" y="-53" type="qcurve" smooth="yes"/>
      <point x="183" y="-26"/>
      <point x="131" y="23" type="qcurve" smooth="yes"/>
      <point x="79" y="72"/>
      <point x="51" y="135" type="qcurve" smooth="yes"/>
      <point x="21" y="201"/>
      <point x="21" y="273" type="qcurve" smooth="yes"/>
      <point x="21" y="345"/>
      <point x="51" y="411" type="qcurve" smooth="yes"/>
      <point x="79" y="474"/>
      <point x="131" y="523" type="qcurve" smooth="yes"/>
      <point x="183" y="572"/>
      <point x="251" y="599" type="qcurve" smooth="yes"/>
      <point x="319" y="627"/>
      <point x="398" y="627" type="qcurve" smooth="yes"/>
      <point x="477" y="627"/>
      <point x="545" y="599" type="qcurve" smooth="yes"/>
      <point x="613" y="572"/>
      <point x="665" y="523" type="qcurve" smooth="yes"/>
      <point x="717" y="474"/>
      <point x="746" y="411" type="qcurve"/>
      <point x="775" y="342"/>
    </contour>
    <contour>
      <point x="308" y="114" type="qcurve" smooth="yes"/>
      <point x="313" y="113"/>
      <point x="322" y="112"/>
      <point x="327" y="112" type="qcurve" smooth="yes"/>
      <point x="334" y="112"/>
      <point x="363" y="116"/>
      <point x="383" y="123" type="qcurve" smooth="yes"/>
      <point x="403" y="130"/>
      <point x="437" y="145"/>
      <point x="446" y="150" type="qcurve"/>
      <point x="448" y="177"/>
      <point x="463" y="248"/>
      <point x="482" y="321"/>
      <point x="501" y="387"/>
      <point x="507" y="408" type="qcurve"/>
      <point x="478" y="421"/>
      <point x="440" y="433"/>
      <point x="430" y="434" type="qcurve"/>
      <point x="409" y="434" type="line" smooth="yes"/>
      <point x="380" y="434"/>
      <point x="340" y="416"/>
      <point x="310" y="385"/>
      <point x="290" y="344"/>
      <point x="282" y="322" type="qcurve" smooth="yes"/>
      <point x="272" y="292"/>
      <point x="265" y="236"/>
      <point x="265" y="216" type="qcurve" smooth="yes"/>
      <point x="265" y="209"/>
      <point x="267" y="178"/>
      <point x="275" y="146"/>
      <point x="292" y="118"/>
    </contour>
  </outline>
</glyph>
<glyph name="G" format="2">
  <advance width="605"/>
  <unicode hex="0047"/>
  <outline>
    <contour>
      <point x="502" y="453" type="line"/>
      <point x="482" y="453" type="line"/>
      <point x="477" y="490"/>
      <point x="455" y="560"/>
      <point x="418" y="614"/>
      <point x="366" y="646"/>
      <point x="332" y="646" type="qcurve" smooth="yes"/>
      <point x="277" y="646"/>
      <point x="213" y="581"/>
      <point x="180" y="485"/>
      <point x="170" y="376"/>
      <point x="169" y="332" type="qcurve"/>
      <point x="169" y="331" type="line"/>
      <point x="169" y="330" type="line"/>
      <point x="169" y="329" type="line"/>
      <point x="169" y="323" type="line"/>
      <point x="169" y="322" type="line"/>
      <point x="169" y="321" type="line"/>
      <point x="169" y="320" type="line"/>
      <point x="169" y="319" type="line"/>
      <point x="169" y="318" type="line"/>
      <point x="169" y="317" type="line"/>
      <point x="169" y="315" type="line"/>
      <point x="169" y="313" type="line"/>
      <point x="169" y="298"/>
      <point x="171" y="258"/>
      <point x="177" y="210"/>
      <point x="187" y="159"/>
      <point x="195" y="134" type="qcurve" smooth="yes"/>
      <point x="210" y="85"/>
      <point x="271" y="19"/>
      <point x="319" y="19" type="qcurve" smooth="yes"/>
      <point x="364" y="19"/>
      <point x="428" y="73"/>
      <point x="428" y="133" type="qcurve" smooth="yes"/>
      <point x="428" y="299" type="line"/>
      <point x="369" y="299" type="line"/>
      <point x="369" y="316" type="line"/>
      <point x="603" y="316" type="line"/>
      <point x="603" y="299" type="line"/>
      <point x="545" y="299" type="line"/>
      <point x="543" y="5" type="line"/>
      <point x="531" y="31"/>
      <point x="512" y="45"/>
      <point x="502" y="45" type="qcurve" smooth="yes"/>
      <point x="499" y="45"/>
      <point x="484" y="42"/>
      <point x="470" y="34" type="qcurve" smooth="yes"/>
      <point x="462" y="30"/>
      <point x="446" y="23"/>
      <point x="437" y="20" type="qcurve" smooth="yes"/>
      <point x="408" y="8"/>
      <point x="347" y="-9"/>
      <point x="314" y="-9" type="qcurve" smooth="yes"/>
      <point x="252" y="-9"/>
      <point x="152" y="39"/>
      <point x="80" y="127"/>
      <point x="41" y="248"/>
      <point x="41" y="322" type="qcurve" smooth="yes"/>
      <point x="41" y="391"/>
      <point x="80" y="519"/>
      <point x="152" y="616"/>
      <point x="251" y="674"/>
      <point x="311" y="674" type="qcurve" smooth="yes"/>
      <point x="335" y="674"/>
      <point x="375" y="658"/>
      <point x="411" y="639"/>
      <point x="443" y="623"/>
      <point x="460" y="623" type="qcurve" smooth="yes"/>
      <point x="474" y="623"/>
      <point x="482" y="642"/>
      <point x="483" y="656" type="qcurve"/>
      <point x="502" y="656" type="line"/>
    </contour>
  </outline>
</glyph>
<glyph name="a" format="2">
  <advance width="536"/>
  <unicode hex="0061"/>
  <outline>
    <contour>
      <point x="-5" y="17" type="line"/>
      <point x="18" y="17"/>
      <point x="45" y="23"/>
      <point x="62" y="39"/>
      <point x="75" y="70"/>
      <point x="83" y="94" type="qcurve"/>
      <point x="126" y="241"/>
      <point x="213" y="530"/>
      <point x="258" y="677" type="qcurve"/>
      <point x="292" y="677" type="line"/>
      <point x="505" y="17" type="line"/>
      <point x="549" y="17" type="line"/>
      <point x="549" y="0" type="line"/>
      <point x="310" y="0" type="line"/>
      <point x="310" y="17" type="line"/>
      <point x="377" y="17" type="line"/>
      <point x="313" y="218" type="line"/>
      <point x="139" y="218" type="line"/>
      <point x="132" y="198" type="line" smooth="yes"/>
      <point x="127" y="183"/>
      <point x="113" y="137"/>
      <point x="99" y="91"/>
      <point x="90" y="53"/>
      <point x="90" y="46" type="qcurve" smooth="yes"/>
      <point x="90" y="29"/>
      <point x="129" y="17"/>
      <point x="149" y="17" type="qcurve" smooth="yes"/>
      <point x="161" y="17" type="line"/>
      <point x="162" y="17" type="line"/>
      <point x="163" y="17" type="line"/>
      <point x="164" y="17" type="line"/>
      <point x="165" y="17" type="line"/>
      <point x="166" y="17" type="line"/>
      <point x="172" y="17" type="line"/>
      <point x="172" y="0" type="line"/>
      <point x="-5" y="0" type="line"/>
    </contour>
    <contour>
      <point x="144" y="235" type="line"/>
      <point x="308" y="235" type="line"/>
      <point x="224" y="497" type="line"/>
    </contour>
  </outline>
</glyph>
<glyph name="m" format="2">
  <advance width="714"/>
  <unicode hex="006D"/>
  <outline>
    <contour>
      <point x="21" y="0" type="line"/>
      <point x="21" y="18" type="line"/>
      <point x="38" y="18" type="line"/>
      <point x="39" y="18" type="line"/>
      <point x="40" y="18" type="line"/>
      <point x="41" y="18" type="line"/>
      <point x="43" y="18" type="line"/>
      <point x="52" y="18"/>
      <point x="71" y="18"/>
      <point x="87" y="24"/>
      <point x="98" y="38"/>
      <point x="100" y="52" type="qcurve" smooth="yes"/>
      <point x="102" y="66"/>
      <point x="104" y="175"/>
      <point x="104" y="249" type="qcurve"/>
      <point x="104" y="250" type="line"/>
      <point x="104" y="252" type="line"/>
      <point x="104" y="253" type="line"/>
      <point x="104" y="254" type="line"/>
      <point x="104" y="255" type="line"/>
      <point x="104" y="271" type="line"/>
      <point x="104" y="274" type="line"/>
      <point x="104" y="275" type="line"/>
      <point x="104" y="276" type="line"/>
      <point x="104" y="277" type="line"/>
      <point x="104" y="278" type="line"/>
      <point x="104" y="279" type="line"/>
      <point x="104" y="295" type="line"/>
      <point x="104" y="296" type="line"/>
      <point x="104" y="297" type="line"/>
      <point x="104" y="298" type="line"/>
      <point x="104" y="333" type="line"/>
      <point x="104" y="334" type="line"/>
      <point x="104" y="335" type="line"/>
      <point x="104" y="336" type="line"/>
      <point x="104" y="349" type="line" smooth="yes"/>
      <point x="104" y="404"/>
      <point x="103" y="511"/>
      <point x="102" y="595"/>
      <point x="99" y="648"/>
      <point x="97" y="650" type="qcurve"/>
      <point x="24" y="650" type="line"/>
      <point x="24" y="667" type="line"/>
      <point x="217" y="667" type="line"/>
      <point x="374" y="216" type="line"/>
      <point x="530" y="667" type="line"/>
      <point x="694" y="667" type="line"/>
      <point x="694" y="650" type="line"/>
      <point x="640" y="650" type="line"/>
      <point x="640" y="17" type="line"/>
      <point x="694" y="17" type="line"/>
      <point x="694" y="0" type="line"/>
      <point x="463" y="0" type="line"/>
      <point x="463" y="18" type="line"/>
      <point x="519" y="18" type="line"/>
      <point x="520" y="552" type="line"/>
      <point x="512" y="554" type="line"/>
      <point x="466" y="417"/>
      <point x="373" y="148"/>
      <point x="325" y="11" type="qcurve"/>
      <point x="129" y="566" type="line"/>
      <point x="121" y="564" type="line"/>
      <point x="121" y="106" type="line"/>
      <point x="121" y="103" type="line"/>
      <point x="121" y="102" type="line"/>
      <point x="121" y="101" type="line"/>
      <point x="121" y="100" type="line"/>
      <point x="121" y="97" type="line"/>
      <point x="121" y="96" type="line"/>
      <point x="121" y="95" type="line"/>
      <point x="121" y="94" type="line"/>
      <point x="121" y="93" type="line"/>
      <point x="121" y="89" type="line"/>
      <point x="121" y="88" type="line"/>
      <point x="121" y="87" type="line"/>
      <point x="121" y="86" type="line"/>
      <point x="121" y="85" type="line"/>
      <point x="121" y="72" type="line"/>
      <point x="121" y="71" type="line"/>
      <point x="121" y="68" type="line" smooth="yes"/>
      <point x="121" y="58"/>
      <point x="123" y="48" type="qcurve"/>
      <point x="125" y="31"/>
      <point x="157" y="17"/>
      <point x="176" y="17" type="qcurve" smooth="yes"/>
      <point x="182" y="17" type="line"/>
      <point x="183" y="17" type="line"/>
      <point x="184" y="17" type="line"/>
      <point x="185" y="17" type="line"/>
      <point x="186" y="17" type="line"/>
      <point x="187" y="17" type="line"/>
      <point x="188" y="17" type="line"/>
      <point x="207" y="17" type="line"/>
      <point x="207" y="0" type="line"/>
    </contour>
    <contour>
      <point x="17" y="18" type="line"/>
      <point x="21" y="24" type="line"/>
      <point x="21" y="18" type="line"/>
    </contour>
  </outline>
</glyph>
<glyph name="braceleft" format="2">
  <advance width="212"/>
  <unicode hex="007B"/>
  <outline>
    <contour>
      <point x="138" y="-6" type="line"/>
      <point x="140" y="-26"/>
      <point x="175" y="-57"/>
      <point x="192" y="-65" type="qcurve"/>
      <point x="188" y="-65" type="line"/>
      <point x="186" y="-84" type="line"/>
      <point x="166" y="-79"/>
      <point x="117" y="-60"/>
      <point x="72" y="-29"/>
      <point x="39" y="14"/>
      <point x="35" y="43" type="qcurve"/>
      <point x="35" y="46" type="line"/>
      <point x="35" y="48" type="line"/>
      <point x="35" y="49" type="line"/>
      <point x="35" y="60"/>
      <point x="53" y="139"/>
      <point x="65" y="187" type="qcurve"/>
      <point x="66" y="194"/>
      <point x="70" y="218"/>
      <point x="75" y="242"/>
      <point x="78" y="262"/>
      <point x="78" y="265" type="qcurve" smooth="yes"/>
      <point x="78" y="268" type="line"/>
      <point x="78" y="269" type="line"/>
      <point x="78" y="270" type="line"/>
      <point x="75" y="290"/>
      <point x="42" y="319"/>
      <point x="26" y="327" type="qcurve"/>
      <point x="26" y="350" type="line"/>
      <point x="42" y="358"/>
      <point x="75" y="387"/>
      <point x="78" y="407" type="qcurve"/>
      <point x="78" y="409" type="line"/>
      <point x="78" y="410" type="line"/>
      <point x="78" y="411" type="line"/>
      <point x="78" y="412" type="line"/>
      <point x="78" y="415"/>
      <point x="75" y="435"/>
      <point x="70" y="458"/>
      <point x="66" y="482"/>
      <point x="65" y="490" type="qcurve"/>
      <point x="59" y="514"/>
      <point x="48" y="558"/>
      <point x="40" y="596"/>
      <point x="35" y="622"/>
      <point x="35" y="628" type="qcurve" smooth="yes"/>
      <point x="35" y="631" type="line"/>
      <point x="35" y="632" type="line"/>
      <point x="35" y="633" type="line"/>
      <point x="35" y="634" type="line"/>
      <point x="39" y="663"/>
      <point x="72" y="706"/>
      <point x="117" y="737"/>
      <point x="166" y="756"/>
      <point x="186" y="761" type="qcurve"/>
      <point x="188" y="742" type="line"/>
      <point x="192" y="742" type="line"/>
      <point x="175" y="734"/>
      <point x="140" y="703"/>
      <point x="138" y="683" type="qcurve"/>
      <point x="138" y="679" type="line"/>
      <point x="138" y="678" type="line"/>
      <point x="138" y="677" type="line"/>
      <point x="138" y="676" type="line"/>
      <point x="138" y="675" type="line"/>
      <point x="138" y="662"/>
      <point x="149" y="606"/>
      <point x="157" y="572" type="qcurve"/>
      <point x="166" y="539"/>
      <point x="178" y="484"/>
      <point x="178" y="467" type="qcurve"/>
      <point x="178" y="466" type="line"/>
      <point x="178" y="462" type="line"/>
      <point x="178" y="461" type="line"/>
      <point x="178" y="460" type="line"/>
      <point x="178" y="459" type="line"/>
      <point x="178" y="458" type="line"/>
      <point x="175" y="432"/>
      <point x="150" y="393"/>
      <point x="115" y="364"/>
      <point x="75" y="344"/>
      <point x="56" y="338" type="qcurve"/>
      <point x="75" y="332"/>
      <point x="115" y="312"/>
      <point x="150" y="283"/>
      <point x="175" y="244"/>
      <point x="178" y="219" type="qcurve"/>
      <point x="178" y="218" type="line"/>
      <point x="178" y="215" type="line"/>
      <point x="178" y="214" type="line"/>
      <point x="178" y="213" type="line"/>
      <point x="178" y="212" type="line"/>
      <point x="178" y="211" type="line"/>
      <point x="178" y="210" type="line"/>
      <point x="178" y="193"/>
      <point x="166" y="138"/>
      <point x="157" y="105" type="qcurve"/>
      <point x="149" y="71"/>
      <point x="138" y="15"/>
      <point x="138" y="2" type="qcurve" smooth="yes"/>
      <point x="138" y="-3" type="line"/>
      <point x="138" y="-4" type="line"/>
      <point x="138" y="-5" type="line"/>
    </contour>
  </outline>
</glyph>
<glyph name="braceright" format="2">
  <advance width="212"/>
  <unicode hex="007D"/>
  <outline>
    <contour>
      <point x="80" y="-2" type="line"/>
      <point x="80" y="-1" type="line"/>
      <point x="80" y="0" type="line"/>
      <point x="80" y="2" type="line"/>
      <point x="80" y="15"/>
      <point x="69" y="71"/>
      <point x="61" y="105" type="qcurve"/>
      <point x="52" y="138"/>
      <point x="40" y="193"/>
      <point x="40" y="210" type="qcurve" smooth="yes"/>
      <point x="40" y="215" type="line"/>
      <point x="40" y="216" type="line"/>
      <point x="40" y="217" type="line"/>
      <point x="40" y="219" type="line"/>
      <point x="43" y="244"/>
      <point x="68" y="283"/>
      <point x="103" y="312"/>
      <point x="143" y="332"/>
      <point x="162" y="338" type="qcurve"/>
      <point x="143" y="344"/>
      <point x="103" y="364"/>
      <point x="68" y="393"/>
      <point x="43" y="432"/>
      <point x="40" y="458" type="qcurve"/>
      <point x="40" y="462" type="line"/>
      <point x="40" y="463" type="line"/>
      <point x="40" y="464" type="line"/>
      <point x="40" y="465" type="line"/>
      <point x="40" y="467" type="line"/>
      <point x="40" y="484"/>
      <point x="52" y="539"/>
      <point x="61" y="572" type="qcurve"/>
      <point x="69" y="606"/>
      <point x="80" y="662"/>
      <point x="80" y="675" type="qcurve" smooth="yes"/>
      <point x="80" y="680" type="line"/>
      <point x="80" y="681" type="line"/>
      <point x="80" y="682" type="line"/>
      <point x="80" y="683" type="line"/>
      <point x="78" y="703"/>
      <point x="43" y="734"/>
      <point x="26" y="742" type="qcurve"/>
      <point x="30" y="742" type="line"/>
      <point x="32" y="761" type="line"/>
      <point x="52" y="756"/>
      <point x="101" y="737"/>
      <point x="146" y="706"/>
      <point x="179" y="663"/>
      <point x="183" y="634" type="qcurve"/>
      <point x="183" y="631" type="line"/>
      <point x="183" y="630" type="line"/>
      <point x="183" y="629" type="line"/>
      <point x="183" y="628" type="line"/>
      <point x="183" y="622"/>
      <point x="178" y="596"/>
      <point x="170" y="558"/>
      <point x="159" y="514"/>
      <point x="153" y="490" type="qcurve"/>
      <point x="152" y="482"/>
      <point x="148" y="458"/>
      <point x="143" y="435"/>
      <point x="140" y="415"/>
      <point x="140" y="412" type="qcurve" smooth="yes"/>
      <point x="140" y="409" type="line"/>
      <point x="140" y="408" type="line"/>
      <point x="140" y="407" type="line"/>
      <point x="143" y="387"/>
      <point x="176" y="358"/>
      <point x="192" y="350" type="qcurve"/>
      <point x="192" y="327" type="line"/>
      <point x="176" y="319"/>
      <point x="143" y="290"/>
      <point x="140" y="270" type="qcurve"/>
      <point x="140" y="268" type="line"/>
      <point x="140" y="267" type="line"/>
      <point x="140" y="266" type="line"/>
      <point x="140" y="265" type="line"/>
      <point x="140" y="262"/>
      <point x="143" y="242"/>
      <point x="148" y="218"/>
      <point x="152" y="194"/>
      <point x="153" y="187" type="qcurve"/>
      <point x="165" y="139"/>
      <point x="183" y="60"/>
      <point x="183" y="49" type="qcurve" smooth="yes"/>
      <point x="183" y="45" type="line"/>
      <point x="183" y="44" type="line"/>
      <point x="183" y="43" type="line"/>
      <point x="179" y="14"/>
      <point x="146" y="-29"/>
      <point x="101" y="-60"/>
      <point x="52" y="-79"/>
      <point x="32" y="-84" type="qcurve"/>
      <point x="30" y="-65" type="line"/>
      <point x="26" y="-65" type="line"/>
      <point x="43" y="-57"/>
      <point x="78" y="-26"/>
      <point x="80" y="-6" type="qcurve"/>
    </contour>
  </outline>
</glyph>
<glyph name="asciitilde" format="2">
  <advance width="467"/>
  <unicode hex="007E"/>
  <outline>
    <contour>
      <point x="375" y="380" type="line"/>
      <point x="396" y="382"/>
      <point x="427" y="416"/>
      <point x="436" y="433" type="qcurve"/>
      <point x="436" y="429" type="line"/>
      <point x="454" y="428" type="line"/>
      <point x="449" y="408"/>
      <point x="430" y="359"/>
      <point x="398" y="314"/>
      <point x="355" y="281"/>
      <point x="326" y="278" type="qcurve"/>
      <point x="323" y="278" type="line"/>
      <point x="322" y="278" type="line"/>
      <point x="321" y="278" type="line"/>
      <point x="320" y="278" type="line"/>
      <point x="304" y="278"/>
      <point x="230" y="297"/>
      <point x="182" y="309" type="qcurve"/>
      <point x="174" y="310"/>
      <point x="150" y="315"/>
      <point x="127" y="319"/>
      <point x="107" y="323"/>
      <point x="104" y="323" type="qcurve" smooth="yes"/>
      <point x="101" y="323" type="line"/>
      <point x="100" y="323" type="line"/>
      <point x="99" y="323" type="line"/>
      <point x="79" y="320"/>
      <point x="49" y="288"/>
      <point x="41" y="272" type="qcurve"/>
      <point x="22" y="275" type="line"/>
      <point x="27" y="294"/>
      <point x="46" y="342"/>
      <point x="77" y="386"/>
      <point x="121" y="419"/>
      <point x="151" y="423" type="qcurve"/>
      <point x="156" y="423" type="line"/>
      <point x="157" y="423" type="line"/>
      <point x="158" y="423" type="line"/>
      <point x="159" y="423" type="line"/>
      <point x="160" y="423" type="line"/>
      <point x="177" y="423"/>
      <point x="232" y="410"/>
      <point x="265" y="401" type="qcurve"/>
      <point x="299" y="393"/>
      <point x="354" y="380"/>
      <point x="368" y="380" type="qcurve" smooth="yes"/>
      <point x="371" y="380" type="line"/>
      <point x="372" y="380" type="line"/>
      <point x="373" y="380" type="line"/>
      <point x="374" y="380" type="line"/>
    </contour>
  </outline>
</glyph>
<glyph name="section" format="2">
  <advance width="513"/>
  <unicode hex="00A7"/>
  <outline>
    <contour>
      <point x="289" y="192" type="qcurve" smooth="yes"/>
      <point x="251" y="202"/>
      <point x="181" y="231"/>
      <point x="118" y="272"/>
      <point x="65" y="329"/>
      <point x="46" y="368" type="qcurve" smooth="yes"/>
      <point x="34" y="393"/>
      <point x="22" y="430"/>
      <point x="19" y="454"/>
      <point x="20" y="467"/>
      <point x="20" y="468" type="qcurve"/>
      <point x="20" y="536"/>
      <point x="96" y="642"/>
      <point x="156" y="673" type="qcurve"/>
      <point x="193" y="690"/>
      <point x="244" y="696"/>
      <point x="256" y="696" type="qcurve" smooth="yes"/>
      <point x="284" y="696"/>
      <point x="349" y="678"/>
      <point x="382" y="649" type="qcurve" smooth="yes"/>
      <point x="415" y="620"/>
      <point x="439" y="574" type="qcurve" smooth="yes"/>
      <point x="446" y="559"/>
      <point x="454" y="525"/>
      <point x="454" y="510" type="qcurve"/>
      <point x="454" y="509"/>
      <point x="454" y="497"/>
      <point x="449" y="480"/>
      <point x="437" y="462"/>
      <point x="425" y="456" type="qcurve" smooth="yes"/>
      <point x="418" y="452"/>
      <point x="408" y="452" type="qcurve" smooth="yes"/>
      <point x="398" y="452"/>
      <point x="367" y="467"/>
      <point x="355" y="488" type="qcurve"/>
      <point x="347" y="509"/>
      <point x="347" y="521" type="qcurve" smooth="yes"/>
      <point x="347" y="529"/>
      <point x="356" y="554"/>
      <point x="378" y="565" type="qcurve" smooth="yes"/>
      <point x="384" y="568" type="line"/>
      <point x="394" y="571"/>
      <point x="397" y="578"/>
      <point x="397" y="580" type="qcurve"/>
      <point x="397" y="586"/>
      <point x="391" y="600" type="qcurve" smooth="yes"/>
      <point x="381" y="622"/>
      <point x="348" y="652"/>
      <point x="309" y="671"/>
      <point x="269" y="679"/>
      <point x="252" y="679" type="qcurve" smooth="yes"/>
      <point x="249" y="679"/>
      <point x="219" y="678"/>
      <point x="198" y="667" type="qcurve"/>
      <point x="166" y="652"/>
      <point x="135" y="595"/>
      <point x="133" y="562" type="qcurve"/>
      <point x="133" y="555" type="line"/>
      <point x="133" y="554" type="line"/>
      <point x="133" y="552" type="line"/>
      <point x="133" y="551" type="line"/>
      <point x="133" y="548" type="line" smooth="yes"/>
      <point x="133" y="538"/>
      <point x="135" y="516"/>
      <point x="137" y="505" type="qcurve"/>
      <point x="143" y="504" type="line"/>
      <point x="144" y="503" type="line"/>
      <point x="149" y="502" type="line"/>
      <point x="150" y="502" type="line"/>
      <point x="155" y="501" type="line"/>
      <point x="155" y="500"/>
      <point x="156" y="500" type="qcurve"/>
      <point x="162" y="499" type="line"/>
      <point x="163" y="499"/>
      <point x="164" y="498" type="qcurve"/>
      <point x="168" y="497" type="line"/>
      <point x="169" y="497" type="line"/>
      <point x="174" y="496" type="line"/>
      <point x="175" y="496"/>
      <point x="175" y="495" type="qcurve"/>
      <point x="181" y="494" type="line"/>
      <point x="182" y="494" type="line"/>
      <point x="183" y="494" type="line"/>
      <point x="187" y="492" type="line"/>
      <point x="188" y="492" type="line"/>
      <point x="189" y="492" type="line"/>
      <point x="193" y="491" type="line"/>
      <point x="194" y="491" type="line"/>
      <point x="195" y="491" type="line"/>
      <point x="201" y="489" type="line"/>
      <point x="202" y="489" type="line"/>
      <point x="206" y="488" type="line"/>
      <point x="207" y="487"/>
      <point x="208" y="487" type="qcurve"/>
      <point x="212" y="486" type="line"/>
      <point x="214" y="486"/>
      <point x="215" y="485" type="qcurve"/>
      <point x="220" y="484" type="line"/>
      <point x="221" y="484" type="line"/>
      <point x="226" y="483" type="line"/>
      <point x="227" y="482" type="line"/>
      <point x="232" y="481" type="line"/>
      <point x="233" y="481" type="line"/>
      <point x="272" y="471"/>
      <point x="343" y="443"/>
      <point x="405" y="402"/>
      <point x="457" y="345"/>
      <point x="477" y="306" type="qcurve" smooth="yes"/>
      <point x="489" y="281"/>
      <point x="501" y="244"/>
      <point x="504" y="220"/>
      <point x="503" y="207"/>
      <point x="503" y="207" type="qcurve"/>
      <point x="503" y="138"/>
      <point x="427" y="32"/>
      <point x="367" y="1" type="qcurve" smooth="yes"/>
      <point x="329" y="-18"/>
      <point x="280" y="-23"/>
      <point x="269" y="-23" type="qcurve" smooth="yes"/>
      <point x="248" y="-23"/>
      <point x="199" y="-12"/>
      <point x="150" y="15"/>
      <point x="103" y="63"/>
      <point x="85" y="99" type="qcurve"/>
      <point x="76" y="115"/>
      <point x="69" y="147"/>
      <point x="69" y="161" type="qcurve"/>
      <point x="69" y="162"/>
      <point x="69" y="176"/>
      <point x="74" y="193"/>
      <point x="86" y="211"/>
      <point x="98" y="217" type="qcurve" smooth="yes"/>
      <point x="106" y="221"/>
      <point x="116" y="221" type="qcurve" smooth="yes"/>
      <point x="126" y="221"/>
      <point x="156" y="207"/>
      <point x="168" y="185" type="qcurve"/>
      <point x="176" y="166"/>
      <point x="176" y="153" type="qcurve" smooth="yes"/>
      <point x="176" y="145"/>
      <point x="167" y="120"/>
      <point x="145" y="109" type="qcurve"/>
      <point x="140" y="106" type="line"/>
      <point x="129" y="104"/>
      <point x="126" y="96"/>
      <point x="126" y="94" type="qcurve"/>
      <point x="126" y="86"/>
      <point x="132" y="73" type="qcurve" smooth="yes"/>
      <point x="142" y="52"/>
      <point x="175" y="22"/>
      <point x="214" y="4"/>
      <point x="254" y="-5"/>
      <point x="271" y="-5" type="qcurve" smooth="yes"/>
      <point x="274" y="-5"/>
      <point x="305" y="-4"/>
      <point x="324" y="6" type="qcurve"/>
      <point x="358" y="22"/>
      <point x="388" y="77"/>
      <point x="390" y="111" type="qcurve"/>
      <point x="390" y="112" type="line"/>
      <point x="390" y="113" type="line"/>
      <point x="390" y="116" type="line"/>
      <point x="390" y="117" type="line"/>
      <point x="390" y="119" type="line"/>
      <point x="390" y="121" type="line"/>
      <point x="390" y="122" type="line"/>
      <point x="390" y="144"/>
      <point x="387" y="168" type="qcurve"/>
      <point x="362" y="173"/>
      <point x="314" y="185"/>
    </contour>
    <contour>
      <point x="166" y="420" type="qcurve"/>
      <point x="195" y="357"/>
      <point x="269" y="279"/>
      <point x="309" y="251" type="qcurve" smooth="yes"/>
      <point x="325" y="240"/>
      <point x="357" y="222"/>
      <point x="373" y="214" type="qcurve"/>
      <point x="367" y="236"/>
      <point x="358" y="255" type="qcurve" smooth="yes"/>
      <point x="327" y="315"/>
      <point x="255" y="395"/>
      <point x="213" y="422" type="qcurve" smooth="yes"/>
      <point x="181" y="442"/>
      <point x="149" y="457" type="qcurve"/>
      <point x="153" y="447"/>
      <point x="161" y="429"/>
    </contour>
  </outline>
</glyph>
<glyph name="guillemotleft" format="2">
  <advance width="365"/>
  <unicode hex="00AB"/>
  <outline>
    <contour>
      <point x="189" y="494" type="line"/>
      <point x="198" y="488" type="line"/>
      <point x="187" y="469"/>
      <point x="168" y="435"/>
      <point x="159" y="418" type="qcurve" smooth="yes"/>
      <point x="143" y="390"/>
      <point x="111" y="333"/>
      <point x="103" y="318" type="qcurve"/>
      <point x="107" y="310"/>
      <point x="119" y="288"/>
      <point x="127" y="274" type="qcurve" smooth="yes"/>
      <point x="131" y="268"/>
      <point x="132" y="265" type="qcurve" smooth="yes"/>
      <point x="133" y="263" type="line"/>
      <point x="133" y="262" type="line"/>
      <point x="134" y="262" type="line"/>
      <point x="134" y="261" type="line"/>
      <point x="135" y="260" type="line"/>
      <point x="135" y="259" type="line"/>
      <point x="136" y="258" type="line"/>
      <point x="136" y="257" type="line"/>
      <point x="137" y="257" type="line"/>
      <point x="137" y="256" type="line"/>
      <point x="138" y="255" type="line"/>
      <point x="138" y="254" type="line"/>
      <point x="139" y="254"/>
      <point x="139" y="253" type="qcurve"/>
      <point x="140" y="252" type="line"/>
      <point x="152" y="231" type="line"/>
      <point x="153" y="229" type="line" smooth="yes"/>
      <point x="154" y="226"/>
      <point x="158" y="220" type="qcurve"/>
      <point x="159" y="218" type="line" smooth="yes"/>
      <point x="168" y="201"/>
      <point x="187" y="167"/>
      <point x="198" y="148" type="qcurve"/>
      <point x="189" y="142" type="line"/>
      <point x="27" y="274" type="line"/>
      <point x="16" y="296"/>
      <point x="16" y="342"/>
      <point x="27" y="362" type="qcurve"/>
    </contour>
    <contour>
      <point x="334" y="494" type="line"/>
      <point x="343" y="488" type="line"/>
      <point x="332" y="469"/>
      <point x="313" y="435"/>
      <point x="304" y="418" type="qcurve" smooth="yes"/>
      <point x="288" y="390"/>
      <point x="256" y="333"/>
      <point x="248" y="318" type="qcurve"/>
      <point x="252" y="310"/>
      <point x="264" y="288"/>
      <point x="272" y="274" type="qcurve" smooth="yes"/>
      <point x="276" y="268"/>
      <point x="277" y="265" type="qcurve" smooth="yes"/>
      <point x="278" y="263" type="line"/>
      <point x="278" y="262" type="line"/>
      <point x="279" y="262" type="line"/>
      <point x="279" y="261" type="line"/>
      <point x="280" y="260" type="line"/>
      <point x="280" y="259" type="line"/>
      <point x="281" y="258" type="line"/>
      <point x="281" y="257" type="line"/>
      <point x="282" y="257" type="line"/>
      <point x="282" y="256" type="line"/>
      <point x="283" y="255" type="line"/>
      <point x="283" y="254" type="line"/>
      <point x="284" y="254"/>
      <point x="284" y="253" type="qcurve"/>
      <point x="285" y="252" type="line"/>
      <point x="297" y="231" type="line"/>
      <point x="298" y="229" type="line" smooth="yes"/>
      <point x="299" y="226"/>
      <point x="303" y="220" type="qcurve"/>
      <point x="304" y="218" type="line" smooth="yes"/>
      <point x="313" y="201"/>
      <point x="332" y="167"/>
      <point x="343" y="148" type="qcurve"/>
      <point x="334" y="142" type="line"/>
      <point x="172" y="274" type="line"/>
      <point x="161" y="296"/>
      <point x="161" y="342"/>
      <point x="172" y="362" type="qcurve"/>
    </contour>
  </outline>
</glyph>
<glyph name="acute" format="2">
  <advance width="206"/>
  <unicode hex="00B4"/>
  <outline>
    <contour>
      <point x="103" y="646" type="line"/>
      <point x="110" y="649"/>
      <point x="127" y="653"/>
      <point x="142" y="656"/>
      <point x="152" y="657"/>
      <point x="153" y="657" type="qcurve"/>
      <point x="162" y="657"/>
      <point x="182" y="651"/>
      <point x="187" y="640" type="qcurve"/>
      <point x="197" y="610"/>
      <point x="178" y="588"/>
      <point x="158" y="576" type="qcurve" smooth="yes"/>
      <point x="144" y="568"/>
      <point x="100" y="547"/>
      <point x="77" y="537" type="qcurve" smooth="yes"/>
      <point x="64" y="532"/>
      <point x="36" y="520"/>
      <point x="22" y="513" type="qcurve"/>
      <point x="16" y="522" type="line"/>
    </contour>
  </outline>
</glyph>
<glyph name="onesuperior" format="2">
  <advance width="222"/>
  <unicode hex="00B9"/>
  <outline>
    <contour>
      <point x="155" y="654" type="line"/>
      <point x="155" y="344" type="line"/>
      <point x="188" y="344" type="line"/>
      <point x="188" y="328" type="line"/>
      <point x="46" y="328" type="line"/>
      <point x="46" y="329" type="line"/>
      <point x="46" y="329" type="line"/>
      <point x="46" y="329" type="line"/>
      <point x="46" y="329" type="line"/>
      <point x="46" y="330" type="line"/>
      <point x="46" y="330" type="line"/>
      <point x="46" y="330" type="line"/>
      <point x="46" y="330" type="line"/>
      <point x="46" y="330" type="line"/>
      <point x="46" y="331" type="line"/>
      <point x="46" y="331" type="line"/>
      <point x="46" y="331" type="line"/>
      <point x="46" y="331" type="line"/>
      <point x="46" y="332" type="line"/>
      <point x="46" y="332" type="line"/>
      <point x="46" y="332" type="line"/>
      <point x="46" y="332" type="line"/>
      <point x="46" y="332" type="line"/>
      <point x="46" y="335" type="line"/>
      <point x="46" y="335" type="line"/>
      <point x="46" y="335" type="line"/>
      <point x="46" y="336" type="line"/>
      <point x="46" y="336" type="line"/>
      <point x="46" y="337" type="line"/>
      <point x="46" y="337" type="line"/>
      <point x="46" y="337" type="line"/>
      <point x="46" y="337" type="line"/>
      <point x="46" y="337" type="line"/>
      <point x="46" y="337" type="line"/>
      <point x="46" y="337" type="line"/>
      <point x="46" y="337" type="line"/>
      <point x="46" y="337" type="line"/>
      <point x="46" y="338" type="line"/>
      <point x="46" y="338" type="line"/>
      <point x="46" y="338" type="line"/>
      <point x="46" y="344" type="line"/>
      <point x="46" y="344" type="line"/>
      <point x="46" y="344" type="line"/>
      <point x="76" y="344" type="line"/>
      <point x="76" y="580" type="line"/>
      <point x="36" y="552" type="line"/>
      <point x="22" y="562" type="line"/>
      <point x="120" y="654" type="line"/>
    </contour>
  </outline>
</glyph>
<glyph name="Igrave" format="2">
  <advance width="308"/>
  <unicode hex="00CC"/>
  <outline>
    <contour>
      <point x="218" y="709" type="line"/>
      <point x="212" y="700" type="line"/>
      <point x="198" y="707"/>
      <point x="170" y="719"/>
      <point x="157" y="724" type="qcurve" smooth="yes"/>
      <point x="134" y="734"/>
      <point x="89" y="755"/>
      <point x="76" y="763" type="qcurve" smooth="yes"/>
      <point x="55" y="775"/>
      <point x="37" y="798"/>
      <point x="47" y="827" type="qcurve"/>
      <point x="52" y="838"/>
      <point x="72" y="844"/>
      <point x="81" y="844" type="qcurve"/>
      <point x="82" y="844"/>
      <point x="92" y="843"/>
      <point x="107" y="840"/>
      <point x="124" y="836"/>
      <point x="131" y="833" type="qcurve"/>
    </contour>
    <contour>
      <point x="31" y="667" type="line"/>
      <point x="280" y="667" type="line"/>
      <point x="280" y="650" type="line"/>
      <point x="208" y="650" type="line"/>
      <point x="208" y="17" type="line"/>
      <point x="280" y="17" type="line"/>
      <point x="280" y="0" type="line"/>
      <point x="31" y="0" type="line"/>
      <point x="31" y="17" type="line"/>
      <point x="94" y="17" type="line"/>
      <point x="94" y="650" type="line"/>
      <point x="31" y="650" type="line"/>
    </contour>
  </outline>
</glyph>
<glyph name="Iacute" format="2">
  <advance width="308"/>
  <unicode hex="00CD"/>
  <outline>
    <contour>
      <point x="164" y="833" type="line"/>
      <point x="171" y="836"/>
      <point x="188" y="840"/>
      <point x="203" y="843"/>
      <point x="213" y="844"/>
      <point x="214" y="844" type="qcurve"/>
      <point x="223" y="844"/>
      <point x="243" y="838"/>
      <point x="248" y="827" type="qcurve"/>
      <point x="258" y="797"/>
      <point x="239" y="775"/>
      <point x="219" y="763" type="qcurve" smooth="yes"/>
      <point x="205" y="755"/>
      <point x="161" y="734"/>
      <point x="138" y="724" type="qcurve" smooth="yes"/>
      <point x="125" y="719"/>
      <point x="97" y="707"/>
      <point x="83" y="700" type="qcurve"/>
      <point x="77" y="709" type="line"/>
    </contour>
    <contour>
      <point x="31" y="667" type="line"/>
      <point x="280" y="667" type="line"/>
      <point x="280" y="650" type="line"/>
      <point x="208" y="650" type="line"/>
      <point x="208" y="17" type="line"/>
      <point x="280" y="17" type="line"/>
      <point x="280" y="0" type="line"/>
      <point x="31" y="0" type="line"/>
      <point x="31" y="17" type="line"/>
      <point x="94" y="17" type="line"/>
      <point x="94" y="650" type="line"/>
      <point x="31" y="650" type="line"/>
    </contour>
  </outline>
</glyph>
<glyph name="Oslash" format="2">
  <advance width="595"/>
  <unicode hex="00D8"/>
  <outline>
    <contour>
      <point x="301" y="681" type="qcurve" smooth="yes"/>
      <point x="343" y="681"/>
      <point x="378" y="665" type="qcurve"/>
      <point x="403" y="741" type="line"/>
      <point x="423" y="735" type="line"/>
      <point x="397" y="655" type="line"/>
      <point x="400" y="654"/>
      <point x="406" y="650" type="qcurve" smooth="yes"/>
      <point x="441" y="627"/>
      <point x="498" y="558"/>
      <point x="538" y="474"/>
      <point x="560" y="380"/>
      <point x="560" y="332" type="qcurve" smooth="yes"/>
      <point x="560" y="268"/>
      <point x="522" y="145"/>
      <point x="453" y="48"/>
      <point x="358" y="-12"/>
      <point x="301" y="-12" type="qcurve" smooth="yes"/>
      <point x="242" y="-12"/>
      <point x="195" y="19" type="qcurve"/>
      <point x="194" y="19"/>
      <point x="194" y="20" type="qcurve"/>
      <point x="192" y="20"/>
      <point x="191" y="21" type="qcurve"/>
      <point x="161" y="-72" type="line"/>
      <point x="141" y="-66" type="line"/>
      <point x="174" y="34" type="line"/>
      <point x="157" y="48"/>
      <point x="126" y="81"/>
      <point x="113" y="100" type="qcurve" smooth="yes"/>
      <point x="79" y="151"/>
      <point x="41" y="275"/>
      <point x="41" y="341" type="qcurve" smooth="yes"/>
      <point x="41" y="402"/>
      <point x="82" y="524"/>
      <point x="153" y="621"/>
      <point x="247" y="681"/>
    </contour>
    <contour>
      <point x="303" y="664" type="qcurve" smooth="yes"/>
      <point x="271" y="664"/>
      <point x="225" y="631"/>
      <point x="193" y="577"/>
      <point x="174" y="508"/>
      <point x="163" y="434"/>
      <point x="159" y="363"/>
      <point x="159" y="335" type="qcurve" smooth="yes"/>
      <point x="159" y="292"/>
      <point x="167" y="180"/>
      <point x="181" y="128" type="qcurve" smooth="yes"/>
      <point x="185" y="111"/>
      <point x="193" y="93" type="qcurve"/>
      <point x="368" y="633" type="line"/>
      <point x="365" y="636" type="line"/>
      <point x="360" y="641" type="line"/>
      <point x="359" y="642" type="line"/>
      <point x="357" y="644" type="line"/>
      <point x="354" y="647" type="line"/>
      <point x="332" y="664"/>
    </contour>
    <contour>
      <point x="206" y="65" type="line"/>
      <point x="221" y="38"/>
      <point x="267" y="5"/>
      <point x="300" y="5" type="qcurve" smooth="yes"/>
      <point x="333" y="5"/>
      <point x="379" y="39"/>
      <point x="409" y="94"/>
      <point x="425" y="165"/>
      <point x="433" y="238"/>
      <point x="435" y="309"/>
      <point x="435" y="337" type="qcurve" smooth="yes"/>
      <point x="435" y="361"/>
      <point x="432" y="429"/>
      <point x="423" y="502"/>
      <point x="405" y="573"/>
      <point x="390" y="601" type="qcurve" smooth="yes"/>
      <point x="386" y="609"/>
      <point x="383" y="613" type="qcurve"/>
    </contour>
  </outline>
</glyph>
<glyph name="Uacute" format="2">
  <advance width="623"/>
  <unicode hex="00DA"/>
  <outline>
    <contour>
      <point x="329" y="833" type="line"/>
      <point x="336" y="836"/>
      <point x="353" y="840"/>
      <point x="368" y="843"/>
      <point x="378" y="844"/>
      <point x="379" y="844" type="qcurve"/>
      <point x="388" y="844"/>
      <point x="408" y="838"/>
      <point x="413" y="827" type="qcurve"/>
      <point x="423" y="797"/>
      <point x="404" y="775"/>
      <point x="384" y="763" type="qcurve" smooth="yes"/>
      <point x="370" y="755"/>
      <point x="326" y="734"/>
      <point x="303" y="724" type="qcurve" smooth="yes"/>
      <point x="290" y="719"/>
      <point x="262" y="707"/>
      <point x="248" y="700" type="qcurve"/>
      <point x="242" y="709" type="line"/>
    </contour>
    <contour>
      <point x="616" y="650" type="line"/>
      <point x="600" y="650" type="line" smooth="yes"/>
      <point x="580" y="650"/>
      <point x="555" y="648"/>
      <point x="540" y="633"/>
      <point x="535" y="599"/>
      <point x="535" y="568" type="qcurve" smooth="yes"/>
      <point x="535" y="227" type="line" smooth="yes"/>
      <point x="535" y="97"/>
      <point x="430" y="-14"/>
      <point x="325" y="-14" type="qcurve" smooth="yes"/>
      <point x="292" y="-14"/>
      <point x="213" y="-4"/>
      <point x="142" y="27"/>
      <point x="89" y="83"/>
      <point x="83" y="129" type="qcurve" smooth="yes"/>
      <point x="82" y="134"/>
      <point x="81" y="149"/>
      <point x="81" y="157" type="qcurve" smooth="yes"/>
      <point x="81" y="160" type="line"/>
      <point x="81" y="161" type="line"/>
      <point x="81" y="166" type="line"/>
      <point x="81" y="167" type="line"/>
      <point x="81" y="171" type="line"/>
      <point x="81" y="172" type="line"/>
      <point x="81" y="650" type="line"/>
      <point x="18" y="650" type="line"/>
      <point x="18" y="667" type="line"/>
      <point x="271" y="667" type="line"/>
      <point x="271" y="650" type="line"/>
      <point x="207" y="650" type="line"/>
      <point x="207" y="219" type="line" smooth="yes"/>
      <point x="207" y="173"/>
      <point x="218" y="96"/>
      <point x="249" y="40"/>
      <point x="303" y="8"/>
      <point x="345" y="8" type="qcurve" smooth="yes"/>
      <point x="391" y="8"/>
      <point x="456" y="41"/>
      <point x="495" y="102"/>
      <point x="513" y="189"/>
      <point x="513" y="242" type="qcurve" smooth="yes"/>
      <point x="513" y="568" type="line" smooth="yes"/>
      <point x="513" y="600"/>
      <point x="504" y="634"/>
      <point x="490" y="650"/>
      <point x="472" y="652"/>
      <point x="463" y="652" type="qcurve" smooth="yes"/>
      <point x="459" y="652"/>
      <point x="450" y="652"/>
      <point x="445" y="651" type="qcurve"/>
      <point x="440" y="651"/>
      <point x="429" y="650"/>
      <point x="422" y="650" type="qcurve"/>
      <point x="422" y="667" type="line"/>
      <point x="616" y="667" type="line"/>
    </contour>
  </outline>
</glyph>
<glyph name="Ucircumflex" format="2">
  <advance width="623"/>
  <unicode hex="00DB"/>
  <outline>
    <contour>
      <point x="440" y="717" type="line"/>
      <point x="434" y="708" type="line"/>
      <point x="422" y="713"/>
      <point x="398" y="723"/>
      <point x="387" y="728" type="qcurve" smooth="yes"/>
      <point x="367" y="736"/>
      <point x="324" y="757"/>
      <point x="309" y="765" type="qcurve"/>
      <point x="307" y="764" type="line" smooth="yes"/>
      <point x="302" y="761"/>
      <point x="297" y="759" type="qcurve" smooth="yes"/>
      <point x="295" y="758" type="line" smooth="yes"/>
      <point x="291" y="756"/>
      <point x="290" y="755" type="qcurve"/>
      <point x="289" y="755" type="line"/>
      <point x="286" y="754"/>
      <point x="280" y="750" type="qcurve"/>
      <point x="278" y="750" type="line"/>
      <point x="272" y="747" type="line" smooth="yes"/>
      <point x="261" y="742"/>
      <point x="241" y="732"/>
      <point x="231" y="728" type="qcurve" smooth="yes"/>
      <point x="220" y="723"/>
      <point x="196" y="713"/>
      <point x="184" y="708" type="qcurve"/>
      <point x="178" y="717" type="line"/>
      <point x="265" y="841" type="line"/>
      <point x="278" y="848"/>
      <point x="294" y="852"/>
      <point x="302" y="852" type="qcurve" smooth="yes"/>
      <point x="319" y="852"/>
      <point x="342" y="844"/>
      <point x="353" y="841" type="qcurve"/>
    </contour>
    <contour>
      <point x="616" y="650" type="line"/>
      <point x="600" y="650" type="line" smooth="yes"/>
      <point x="580" y="650"/>
      <point x="555" y="648"/>
      <point x="540" y="633"/>
      <point x="535" y="599"/>
      <point x="535" y="568" type="qcurve" smooth="yes"/>
      <point x="535" y="227" type="line" smooth="yes"/>
      <point x="535" y="97"/>
      <point x="430" y="-14"/>
      <point x="325" y="-14" type="qcurve" smooth="yes"/>
      <point x="292" y="-14"/>
      <point x="213" y="-4"/>
      <point x="142" y="27"/>
      <point x="89" y="83"/>
      <point x="83" y="129" type="qcurve" smooth="yes"/>
      <point x="82" y="134"/>
      <point x="81" y="149"/>
      <point x="81" y="157" type="qcurve" smooth="yes"/>
      <point x="81" y="160" type="line"/>
      <point x="81" y="161" type="line"/>
      <point x="81" y="166" type="line"/>
      <point x="81" y="167" type="line"/>
      <point x="81" y="171" type="line"/>
      <point x="81" y="172" type="line"/>
      <point x="81" y="650" type="line"/>
      <point x="18" y="650" type="line"/>
      <point x="18" y="667" type="line"/>
      <point x="271" y="667" type="line"/>
      <point x="271" y="650" type="line"/>
      <point x="207" y="650" type="line"/>
      <point x="207" y="219" type="line" smooth="yes"/>
      <point x="207" y="173"/>
      <point x="218" y="96"/>
      <point x="249" y="40"/>
      <point x="303" y="8"/>
      <point x="345" y="8" type="qcurve" smooth="yes"/>
      <point x="391" y="8"/>
      <point x="456" y="41"/>
      <point x="495" y="102"/>
      <point x="513" y="189"/>
      <point x="513" y="242" type="qcurve" smooth="yes"/>
      <point x="513" y="568" type="line" smooth="yes"/>
      <point x="513" y="600"/>
      <point x="504" y="634"/>
      <point x="490" y="650"/>
      <point x="472" y="652"/>
      <point x="463" y="652" type="qcurve" smooth="yes"/>
      <point x="459" y="652"/>
      <point x="450" y="652"/>
      <point x="445" y="651" type="qcurve"/>
      <point x="440" y="651"/>
      <point x="429" y="650"/>
      <point x="422" y="650" type="qcurve"/>
      <point x="422" y="667" type="line"/>
      <point x="616" y="667" type="line"/>
    </contour>
  </outline>
</glyph>
<glyph name="Thorn" format="2">
  <advance width="528"/>
  <unicode hex="00DE"/>
  <outline>
    <contour>
      <point x="264" y="547" type="line" smooth="yes"/>
      <point x="302" y="547"/>
      <point x="386" y="533"/>
      <point x="456" y="493"/>
      <point x="502" y="421"/>
      <point x="502" y="364" type="qcurve"/>
      <point x="502" y="363" type="line"/>
      <point x="502" y="362" type="line"/>
      <point x="502" y="361" type="line"/>
      <point x="502" y="360" type="line"/>
      <point x="502" y="359" type="line"/>
      <point x="502" y="358" type="line"/>
      <point x="502" y="357" type="line"/>
      <point x="502" y="356" type="line"/>
      <point x="502" y="355" type="line"/>
      <point x="502" y="354" type="line"/>
      <point x="502" y="353" type="line"/>
      <point x="502" y="352" type="line"/>
      <point x="502" y="351" type="line"/>
      <point x="502" y="350" type="line"/>
      <point x="502" y="349" type="line"/>
      <point x="502" y="343" type="line"/>
      <point x="502" y="342" type="line"/>
      <point x="502" y="341" type="line"/>
      <point x="502" y="340" type="line"/>
      <point x="502" y="339" type="line"/>
      <point x="502" y="338" type="line"/>
      <point x="502" y="281"/>
      <point x="456" y="209"/>
      <point x="386" y="169"/>
      <point x="302" y="155"/>
      <point x="264" y="155" type="qcurve" smooth="yes"/>
      <point x="197" y="155" type="line"/>
      <point x="197" y="17" type="line"/>
      <point x="269" y="17" type="line"/>
      <point x="269" y="0" type="line"/>
      <point x="20" y="0" type="line"/>
      <point x="20" y="17" type="line"/>
      <point x="83" y="17" type="line"/>
      <point x="83" y="650" type="line"/>
      <point x="20" y="650" type="line"/>
      <point x="20" y="667" type="line"/>
      <point x="269" y="667" type="line"/>
      <point x="269" y="650" type="line"/>
      <point x="197" y="650" type="line"/>
      <point x="197" y="547" type="line"/>
    </contour>
    <contour>
      <point x="395" y="353" type="qcurve" smooth="yes"/>
      <point x="395" y="425"/>
      <point x="344" y="507"/>
      <point x="297" y="522" type="qcurve" smooth="yes"/>
      <point x="270" y="530"/>
      <point x="197" y="532" type="qcurve"/>
      <point x="197" y="170" type="line"/>
      <point x="270" y="170"/>
      <point x="297" y="180" type="qcurve"/>
      <point x="344" y="195"/>
      <point x="395" y="276"/>
    </contour>
  </outline>
</glyph>
<glyph name="agrave" format="2">
  <advance width="536"/>
  <unicode hex="00E0"/>
  <outline>
    <contour>
      <point x="386" y="709" type="line"/>
      <point x="380" y="700" type="line"/>
      <point x="366" y="707"/>
      <point x="338" y="719"/>
      <point x="325" y="724" type="qcurve" smooth="yes"/>
      <point x="302" y="734"/>
      <point x="257" y="755"/>
      <point x="244" y="763" type="qcurve" smooth="yes"/>
      <point x="223" y="775"/>
      <point x="205" y="798"/>
      <point x="215" y="827" type="qcurve"/>
      <point x="220" y="838"/>
      <point x="240" y="844"/>
      <point x="249" y="844" type="qcurve"/>
      <point x="250" y="844"/>
      <point x="260" y="843"/>
      <point x="275" y="840"/>
      <point x="292" y="836"/>
      <point x="299" y="833" type="qcurve"/>
    </contour>
    <contour>
      <point x="-5" y="17" type="line"/>
      <point x="18" y="17"/>
      <point x="45" y="23"/>
      <point x="62" y="39"/>
      <point x="75" y="70"/>
      <point x="83" y="94" type="qcurve"/>
      <point x="126" y="241"/>
      <point x="213" y="530"/>
      <point x="258" y="677" type="qcurve"/>
      <point x="292" y="677" type="line"/>
      <point x="505" y="17" type="line"/>
      <point x="549" y="17" type="line"/>
      <point x="549" y="0" type="line"/>
      <point x="310" y="0" type="line"/>
      <point x="310" y="17" type="line"/>
      <point x="377" y="17" type="line"/>
      <point x="313" y="218" type="line"/>
      <point x="139" y="218" type="line"/>
      <point x="132" y="198" type="line" smooth="yes"/>
      <point x="127" y="183"/>
      <point x="113" y="137"/>
      <point x="99" y="91"/>
      <point x="90" y="53"/>
      <point x="90" y="46" type="qcurve" smooth="yes"/>
      <point x="90" y="29"/>
      <point x="129" y="17"/>
      <point x="149" y="17" type="qcurve" smooth="yes"/>
      <point x="155" y="17" type="line"/>
      <point x="156" y="17" type="line"/>
      <point x="157" y="17" type="line"/>
      <point x="158" y="17" type="line"/>
      <point x="159" y="17" type="line"/>
      <point x="160" y="17" type="line"/>
      <point x="172" y="17" type="line"/>
      <point x="172" y="0" type="line"/>
      <point x="-5" y="0" type="line"/>
    </contour>
    <contour>
      <point x="144" y="235" type="line"/>
      <point x="308" y="235" type="line"/>
      <point x="224" y="497" type="line"/>
    </contour>
  </outline>
</glyph>
<glyph name="acircumflex" format="2">
  <advance width="536"/>
  <unicode hex="00E2"/>
  <outline>
    <contour>
      <point x="412" y="717" type="line"/>
      <point x="406" y="708" type="line"/>
      <point x="394" y="713"/>
      <point x="370" y="723"/>
      <point x="359" y="728" type="qcurve" smooth="yes"/>
      <point x="339" y="736"/>
      <point x="296" y="757"/>
      <point x="281" y="765" type="qcurve"/>
      <point x="279" y="764" type="line" smooth="yes"/>
      <point x="275" y="762"/>
      <point x="267" y="757"/>
      <point x="262" y="755" type="qcurve"/>
      <point x="261" y="755" type="line"/>
      <point x="258" y="754"/>
      <point x="252" y="750" type="qcurve"/>
      <point x="250" y="750" type="line"/>
      <point x="244" y="747" type="line" smooth="yes"/>
      <point x="233" y="742"/>
      <point x="213" y="732"/>
      <point x="203" y="728" type="qcurve" smooth="yes"/>
      <point x="192" y="723"/>
      <point x="168" y="713"/>
      <point x="156" y="708" type="qcurve"/>
      <point x="150" y="717" type="line"/>
      <point x="237" y="841" type="line"/>
      <point x="250" y="848"/>
      <point x="266" y="852"/>
      <point x="274" y="852" type="qcurve" smooth="yes"/>
      <point x="291" y="852"/>
      <point x="314" y="844"/>
      <point x="325" y="841" type="qcurve"/>
    </contour>
    <contour>
      <point x="-5" y="17" type="line"/>
      <point x="18" y="17"/>
      <point x="45" y="23"/>
      <point x="62" y="39"/>
      <point x="75" y="70"/>
      <point x="83" y="94" type="qcurve"/>
      <point x="126" y="241"/>
      <point x="213" y="530"/>
      <point x="258" y="677" type="qcurve"/>
      <point x="292" y="677" type="line"/>
      <point x="505" y="17" type="line"/>
      <point x="549" y="17" type="line"/>
      <point x="549" y="0" type="line"/>
      <point x="310" y="0" type="line"/>
      <point x="310" y="17" type="line"/>
      <point x="377" y="17" type="line"/>
      <point x="313" y="218" type="line"/>
      <point x="139" y="218" type="line"/>
      <point x="132" y="198" type="line" smooth="yes"/>
      <point x="127" y="183"/>
      <point x="113" y="137"/>
      <point x="99" y="91"/>
      <point x="90" y="53"/>
      <point x="90" y="46" type="qcurve" smooth="yes"/>
      <point x="90" y="29"/>
      <point x="129" y="17"/>
      <point x="149" y="17" type="qcurve" smooth="yes"/>
      <point x="155" y="17" type="line"/>
      <point x="156" y="17" type="line"/>
      <point x="157" y="17" type="line"/>
      <point x="158" y="17" type="line"/>
      <point x="159" y="17" type="line"/>
      <point x="160" y="17" type="line"/>
      <point x="172" y="17" type="line"/>
      <point x="172" y="0" type="line"/>
      <point x="-5" y="0" type="line"/>
    </contour>
    <contour>
      <point x="144" y="235" type="line"/>
      <point x="308" y="235" type="line"/>
      <point x="224" y="497" type="line"/>
    </contour>
  </outline>
</glyph>
<glyph name="aogonek" format="2">
  <advance width="536"/>
  <unicode hex="0105"/>
  <outline>
    <contour>
      <point x="-5" y="17" type="line"/>
      <point x="18" y="17"/>
      <point x="45" y="23"/>
      <point x="62" y="39"/>
      <point x="75" y="70"/>
      <point x="83" y="94" type="qcurve"/>
      <point x="126" y="241"/>
      <point x="213" y="530"/>
      <point x="258" y="677" type="qcurve"/>
      <point x="292" y="677" type="line"/>
      <point x="505" y="17" type="line"/>
      <point x="549" y="17" type="line"/>
      <point x="549" y="0" type="line"/>
      <point x="447" y="0" type="line"/>
      <point x="445" y="-4"/>
      <point x="441" y="-8" type="qcurve"/>
      <point x="435" y="-17"/>
      <point x="419" y="-43"/>
      <point x="404" y="-74"/>
      <point x="392" y="-110"/>
      <point x="390" y="-128" type="qcurve" smooth="yes"/>
      <point x="389" y="-133"/>
      <point x="389" y="-141"/>
      <point x="389" y="-145" type="qcurve" smooth="yes"/>
      <point x="389" y="-163"/>
      <point x="404" y="-190"/>
      <point x="419" y="-190" type="qcurve"/>
      <point x="420" y="-190"/>
      <point x="432" y="-189"/>
      <point x="441" y="-181" type="qcurve" smooth="yes"/>
      <point x="454" y="-170"/>
      <point x="469" y="-156"/>
      <point x="474" y="-152" type="qcurve" smooth="yes"/>
      <point x="476" y="-150"/>
      <point x="480" y="-147"/>
      <point x="481" y="-146" type="qcurve"/>
      <point x="494" y="-154" type="line"/>
      <point x="492" y="-156"/>
      <point x="488" y="-161"/>
      <point x="486" y="-165" type="qcurve"/>
      <point x="481" y="-171"/>
      <point x="464" y="-190"/>
      <point x="450" y="-204" type="qcurve" smooth="yes"/>
      <point x="432" y="-223"/>
      <point x="395" y="-233"/>
      <point x="381" y="-233" type="qcurve" smooth="yes"/>
      <point x="375" y="-233"/>
      <point x="354" y="-229"/>
      <point x="329" y="-220"/>
      <point x="304" y="-204"/>
      <point x="295" y="-191" type="qcurve" smooth="yes"/>
      <point x="289" y="-183"/>
      <point x="284" y="-171"/>
      <point x="283" y="-166" type="qcurve" smooth="yes"/>
      <point x="282" y="-161"/>
      <point x="283" y="-156" type="qcurve"/>
      <point x="283" y="-139"/>
      <point x="298" y="-122" type="qcurve" smooth="yes"/>
      <point x="324" y="-92"/>
      <point x="370" y="-47"/>
      <point x="389" y="-31" type="qcurve" smooth="yes"/>
      <point x="402" y="-20"/>
      <point x="421" y="-5"/>
      <point x="427" y="0" type="qcurve"/>
      <point x="310" y="0" type="line"/>
      <point x="310" y="17" type="line"/>
      <point x="377" y="17" type="line"/>
      <point x="313" y="218" type="line"/>
      <point x="139" y="218" type="line"/>
      <point x="132" y="198" type="line" smooth="yes"/>
      <point x="127" y="183"/>
      <point x="113" y="137"/>
      <point x="99" y="91"/>
      <point x="90" y="53"/>
      <point x="90" y="46" type="qcurve" smooth="yes"/>
      <point x="90" y="29"/>
      <point x="129" y="17"/>
      <point x="149" y="17" type="qcurve" smooth="yes"/>
      <point x="155" y="17" type="line"/>
      <point x="156" y="17" type="line"/>
      <point x="157" y="17" type="line"/>
      <point x="158" y="17" type="line"/>
      <point x="159" y="17" type="line"/>
      <point x="160" y="17" type="line"/>
      <point x="172" y="17" type="line"/>
      <point x="172" y="0" type="line"/>
      <point x="-5" y="0" type="line"/>
    </contour>
    <contour>
      <point x="144" y="235" type="line"/>
      <point x="308" y="235" type="line"/>
      <point x="224" y="497" type="line"/>
    </contour>
  </outline>
</glyph>
<glyph name="gbreve" format="2">
  <advance width="605"/>
  <unicode hex="011F"/>
  <outline>
    <contour>
      <point x="300" y="712" type="qcurve" smooth="yes"/>
      <point x="274" y="712"/>
      <point x="230" y="732"/>
      <point x="197" y="768"/>
      <point x="178" y="816"/>
      <point x="177" y="845" type="qcurve"/>
      <point x="195" y="845" type="line"/>
      <point x="195" y="823"/>
      <point x="215" y="799"/>
      <point x="246" y="787"/>
      <point x="284" y="785"/>
      <point x="301" y="785" type="qcurve" smooth="yes"/>
      <point x="319" y="785"/>
      <point x="356" y="789"/>
      <point x="386" y="802"/>
      <point x="406" y="825"/>
      <point x="406" y="845" type="qcurve"/>
      <point x="424" y="845" type="line"/>
      <point x="421" y="785"/>
      <point x="354" y="712"/>
    </contour>
    <contour>
      <point x="502" y="453" type="line"/>
      <point x="482" y="453" type="line"/>
      <point x="477" y="490"/>
      <point x="455" y="560"/>
      <point x="418" y="614"/>
      <point x="366" y="646"/>
      <point x="332" y="646" type="qcurve" smooth="yes"/>
      <point x="277" y="646"/>
      <point x="213" y="581"/>
      <point x="180" y="485"/>
      <point x="170" y="376"/>
      <point x="169" y="332" type="qcurve"/>
      <point x="169" y="331" type="line"/>
      <point x="169" y="330" type="line"/>
      <point x="169" y="329" type="line"/>
      <point x="169" y="323" type="line"/>
      <point x="169" y="322" type="line"/>
      <point x="169" y="321" type="line"/>
      <point x="169" y="320" type="line"/>
      <point x="169" y="319" type="line"/>
      <point x="169" y="318" type="line"/>
      <point x="169" y="317" type="line"/>
      <point x="169" y="315" type="line"/>
      <point x="169" y="313" type="line"/>
      <point x="169" y="298"/>
      <point x="171" y="258"/>
      <point x="177" y="210"/>
      <point x="187" y="159"/>
      <point x="195" y="134" type="qcurve" smooth="yes"/>
      <point x="210" y="85"/>
      <point x="271" y="19"/>
      <point x="319" y="19" type="qcurve" smooth="yes"/>
      <point x="364" y="19"/>
      <point x="428" y="73"/>
      <point x="428" y="133" type="qcurve" smooth="yes"/>
      <point x="428" y="299" type="line"/>
      <point x="369" y="299" type="line"/>
      <point x="369" y="316" type="line"/>
      <point x="603" y="316" type="line"/>
      <point x="603" y="299" type="line"/>
      <point x="545" y="299" type="line"/>
      <point x="543" y="5" type="line"/>
      <point x="531" y="31"/>
      <point x="512" y="45"/>
      <point x="502" y="45" type="qcurve" smooth="yes"/>
      <point x="499" y="45"/>
      <point x="484" y="42"/>
      <point x="470" y="34" type="qcurve" smooth="yes"/>
      <point x="462" y="30"/>
      <point x="446" y="23"/>
      <point x="437" y="20" type="qcurve" smooth="yes"/>
      <point x="408" y="8"/>
      <point x="347" y="-9"/>
      <point x="314" y="-9" type="qcurve" smooth="yes"/>
      <point x="252" y="-9"/>
      <point x="152" y="39"/>
      <point x="80" y="127"/>
      <point x="41" y="248"/>
      <point x="41" y="322" type="qcurve" smooth="yes"/>
      <point x="41" y="391"/>
      <point x="80" y="519"/>
      <point x="152" y="616"/>
      <point x="251" y="674"/>
      <point x="311" y="674" type="qcurve" smooth="yes"/>
      <point x="335" y="674"/>
      <point x="375" y="658"/>
      <point x="411" y="639"/>
      <point x="443" y="623"/>
      <point x="460" y="623" type="qcurve" smooth="yes"/>
      <point x="474" y="623"/>
      <point x="482" y="642"/>
      <point x="483" y="656" type="qcurve"/>
      <point x="502" y="656" type="line"/>
    </contour>
  </outline>
</glyph>
<glyph name="uni0122" format="2">
  <advance width="605"/>
  <unicode hex="0122"/>
  <outline>
    <contour>
      <point x="502" y="453" type="line"/>
      <point x="482" y="453" type="line"/>
      <point x="477" y="490"/>
      <point x="455" y="560"/>
      <point x="418" y="614"/>
      <point x="366" y="646"/>
      <point x="332" y="646" type="qcurve" smooth="yes"/>
      <point x="277" y="646"/>
      <point x="213" y="581"/>
      <point x="180" y="485"/>
      <point x="170" y="376"/>
      <point x="169" y="332" type="qcurve"/>
      <point x="169" y="331" type="line"/>
      <point x="169" y="330" type="line"/>
      <point x="169" y="329" type="line"/>
      <point x="169" y="323" type="line"/>
      <point x="169" y="322" type="line"/>
      <point x="169" y="321" type="line"/>
      <point x="169" y="320" type="line"/>
      <point x="169" y="319" type="line"/>
      <point x="169" y="318" type="line"/>
      <point x="169" y="317" type="line"/>
      <point x="169" y="315" type="line"/>
      <point x="169" y="313" type="line"/>
      <point x="169" y="298"/>
      <point x="171" y="258"/>
      <point x="177" y="210"/>
      <point x="187" y="159"/>
      <point x="195" y="134" type="qcurve" smooth="yes"/>
      <point x="210" y="85"/>
      <point x="271" y="19"/>
      <point x="319" y="19" type="qcurve" smooth="yes"/>
      <point x="364" y="19"/>
      <point x="428" y="73"/>
      <point x="428" y="133" type="qcurve" smooth="yes"/>
      <point x="428" y="299" type="line"/>
      <point x="369" y="299" type="line"/>
      <point x="369" y="316" type="line"/>
      <point x="603" y="316" type="line"/>
      <point x="603" y="299" type="line"/>
      <point x="545" y="299" type="line"/>
      <point x="543" y="5" type="line"/>
      <point x="531" y="31"/>
      <point x="512" y="45"/>
      <point x="502" y="45" type="qcurve" smooth="yes"/>
      <point x="499" y="45"/>
      <point x="484" y="42"/>
      <point x="470" y="34" type="qcurve" smooth="yes"/>
      <point x="462" y="30"/>
      <point x="446" y="23"/>
      <point x="437" y="20" type="qcurve" smooth="yes"/>
      <point x="408" y="8"/>
      <point x="347" y="-9"/>
      <point x="314" y="-9" type="qcurve" smooth="yes"/>
      <point x="252" y="-9"/>
      <point x="152" y="39"/>
      <point x="80" y="127"/>
      <point x="41" y="248"/>
      <point x="41" y="322" type="qcurve" smooth="yes"/>
      <point x="41" y="391"/>
      <point x="80" y="519"/>
      <point x="152" y="616"/>
      <point x="251" y="674"/>
      <point x="311" y="674" type="qcurve" smooth="yes"/>
      <point x="335" y="674"/>
      <point x="375" y="658"/>
      <point x="411" y="639"/>
      <point x="443" y="623"/>
      <point x="460" y="623" type="qcurve" smooth="yes"/>
      <point x="474" y="623"/>
      <point x="482" y="642"/>
      <point x="483" y="656" type="qcurve"/>
      <point x="502" y="656" type="line"/>
    </contour>
    <contour>
      <point x="312" y="-271" type="line"/>
      <point x="320" y="-261"/>
      <point x="339" y="-232"/>
      <point x="355" y="-199"/>
      <point x="365" y="-162"/>
      <point x="365" y="-142" type="qcurve" smooth="yes"/>
      <point x="365" y="-125"/>
      <point x="355" y="-87"/>
      <point x="343" y="-67" type="qcurve"/>
      <point x="336" y="-73" type="line"/>
      <point x="340" y="-82"/>
      <point x="340" y="-92" type="qcurve" smooth="yes"/>
      <point x="340" y="-103"/>
      <point x="324" y="-125"/>
      <point x="302" y="-125" type="qcurve" smooth="yes"/>
      <point x="285" y="-125"/>
      <point x="263" y="-98"/>
      <point x="263" y="-78" type="qcurve" smooth="yes"/>
      <point x="263" y="-54"/>
      <point x="294" y="-25"/>
      <point x="313" y="-25" type="qcurve" smooth="yes"/>
      <point x="331" y="-25"/>
      <point x="358" y="-44"/>
      <point x="377" y="-74"/>
      <point x="386" y="-112"/>
      <point x="386" y="-131" type="qcurve" smooth="yes"/>
      <point x="386" y="-159"/>
      <point x="379" y="-201"/>
      <point x="363" y="-237"/>
      <point x="339" y="-268"/>
      <point x="322" y="-285" type="qcurve"/>
    </contour>
  </outline>
</glyph>
<glyph name="Iogonek" format="2">
  <advance width="308"/>
  <unicode hex="012E"/>
  <outline>
    <contour>
      <point x="31" y="667" type="line"/>
      <point x="280" y="667" type="line"/>
      <point x="280" y="650" type="line"/>
      <point x="208" y="650" type="line"/>
      <point x="208" y="17" type="line"/>
      <point x="280" y="17" type="line"/>
      <point x="280" y="0" type="line"/>
      <point x="192" y="0" type="line"/>
      <point x="190" y="-4"/>
      <point x="186" y="-8" type="qcurve"/>
      <point x="180" y="-17"/>
      <point x="164" y="-43"/>
      <point x="149" y="-74"/>
      <point x="137" y="-110"/>
      <point x="135" y="-128" type="qcurve" smooth="yes"/>
      <point x="134" y="-133"/>
      <point x="134" y="-141"/>
      <point x="134" y="-145" type="qcurve" smooth="yes"/>
      <point x="134" y="-163"/>
      <point x="149" y="-190"/>
      <point x="164" y="-190" type="qcurve"/>
      <point x="165" y="-190"/>
      <point x="177" y="-189"/>
      <point x="186" y="-181" type="qcurve" smooth="yes"/>
      <point x="199" y="-170"/>
      <point x="214" y="-156"/>
      <point x="219" y="-152" type="qcurve" smooth="yes"/>
      <point x="221" y="-150"/>
      <point x="225" y="-147"/>
      <point x="226" y="-146" type="qcurve"/>
      <point x="239" y="-154" type="line"/>
      <point x="237" y="-156"/>
      <point x="233" y="-161"/>
      <point x="231" y="-165" type="qcurve"/>
      <point x="226" y="-171"/>
      <point x="209" y="-190"/>
      <point x="195" y="-204" type="qcurve" smooth="yes"/>
      <point x="177" y="-223"/>
      <point x="140" y="-233"/>
      <point x="126" y="-233" type="qcurve" smooth="yes"/>
      <point x="120" y="-233"/>
      <point x="99" y="-229"/>
      <point x="74" y="-220"/>
      <point x="49" y="-204"/>
      <point x="40" y="-191" type="qcurve" smooth="yes"/>
      <point x="34" y="-183"/>
      <point x="29" y="-171"/>
      <point x="28" y="-166" type="qcurve" smooth="yes"/>
      <point x="27" y="-161"/>
      <point x="28" y="-156" type="qcurve"/>
      <point x="28" y="-139"/>
      <point x="43" y="-122" type="qcurve" smooth="yes"/>
      <point x="69" y="-92"/>
      <point x="115" y="-47"/>
      <point x="134" y="-31" type="qcurve" smooth="yes"/>
      <point x="147" y="-20"/>
      <point x="166" y="-5"/>
      <point x="172" y="0" type="qcurve"/>
      <point x="31" y="0" type="line"/>
      <point x="31" y="17" type="line"/>
      <point x="94" y="17" type="line"/>
      <point x="94" y="650" type="line"/>
      <point x="31" y="650" type="line"/>
    </contour>
  </outline>
</glyph>
<glyph name="Kcommaaccent" format="2">
  <advance width="599"/>
  <unicode hex="0136"/>
  <outline>
    <contour>
      <point x="284" y="-292" type="line"/>
      <point x="292" y="-282"/>
      <point x="311" y="-253"/>
      <point x="327" y="-220"/>
      <point x="337" y="-183"/>
      <point x="337" y="-163" type="qcurve" smooth="yes"/>
      <point x="337" y="-146"/>
      <point x="327" y="-108"/>
      <point x="315" y="-88" type="qcurve"/>
      <point x="308" y="-94" type="line"/>
      <point x="312" y="-103"/>
      <point x="312" y="-113" type="qcurve" smooth="yes"/>
      <point x="312" y="-124"/>
      <point x="296" y="-146"/>
      <point x="274" y="-146" type="qcurve" smooth="yes"/>
      <point x="257" y="-146"/>
      <point x="235" y="-119"/>
      <point x="235" y="-99" type="qcurve" smooth="yes"/>
      <point x="235" y="-75"/>
      <point x="266" y="-46"/>
      <point x="285" y="-46" type="qcurve" smooth="yes"/>
      <point x="303" y="-46"/>
      <point x="330" y="-65"/>
      <point x="349" y="-95"/>
      <point x="358" y="-133"/>
      <point x="358" y="-152" type="qcurve" smooth="yes"/>
      <point x="358" y="-180"/>
      <point x="351" y="-222"/>
      <point x="335" y="-258"/>
      <point x="311" y="-289"/>
      <point x="294" y="-306" type="qcurve"/>
    </contour>
    <contour>
      <point x="550" y="17" type="line"/>
      <point x="609" y="17" type="line"/>
      <point x="609" y="0" type="line"/>
      <point x="345" y="0" type="line"/>
      <point x="345" y="17" type="line"/>
      <point x="415" y="17" type="line"/>
      <point x="207" y="341" type="line"/>
      <point x="200" y="321" type="line"/>
      <point x="200" y="17" type="line"/>
      <point x="256" y="17" type="line"/>
      <point x="256" y="0" type="line"/>
      <point x="27" y="0" type="line"/>
      <point x="27" y="17" type="line"/>
      <point x="85" y="17" type="line"/>
      <point x="85" y="650" type="line"/>
      <point x="27" y="650" type="line"/>
      <point x="27" y="667" type="line"/>
      <point x="252" y="667" type="line"/>
      <point x="252" y="650" type="line"/>
      <point x="200" y="650" type="line"/>
      <point x="200" y="348" type="line"/>
      <point x="401" y="567" type="line"/>
      <point x="401" y="566" type="line"/>
      <point x="443" y="611"/>
      <point x="443" y="630" type="qcurve" smooth="yes"/>
      <point x="443" y="642"/>
      <point x="424" y="650"/>
      <point x="405" y="650" type="qcurve" smooth="yes"/>
      <point x="364" y="650" type="line"/>
      <point x="364" y="667" type="line"/>
      <point x="594" y="667" type="line"/>
      <point x="594" y="650" type="line"/>
      <point x="584" y="650" type="line"/>
      <point x="583" y="650" type="line"/>
      <point x="581" y="650" type="line"/>
      <point x="579" y="650" type="line"/>
      <point x="510" y="650"/>
      <point x="473" y="617" type="qcurve"/>
      <point x="435" y="579"/>
      <point x="345" y="480"/>
      <point x="294" y="420" type="qcurve"/>
    </contour>
  </outline>
</glyph>
<glyph name="lacute" format="2">
  <advance width="540"/>
  <unicode hex="013A"/>
  <outline>
    <contour>
      <point x="231" y="831" type="line"/>
      <point x="238" y="834"/>
      <point x="255" y="838"/>
      <point x="270" y="841"/>
      <point x="280" y="842"/>
      <point x="281" y="842" type="qcurve"/>
      <point x="290" y="842"/>
      <point x="310" y="836"/>
      <point x="315" y="825" type="qcurve"/>
      <point x="325" y="795"/>
      <point x="306" y="773"/>
      <point x="286" y="761" type="qcurve" smooth="yes"/>
      <point x="272" y="753"/>
      <point x="228" y="732"/>
      <point x="205" y="722" type="qcurve" smooth="yes"/>
      <point x="192" y="717"/>
      <point x="164" y="705"/>
      <point x="150" y="698" type="qcurve"/>
      <point x="144" y="707" type="line"/>
    </contour>
    <contour>
      <point x="520" y="221" type="line"/>
      <point x="520" y="0" type="line"/>
      <point x="27" y="0" type="line"/>
      <point x="27" y="17" type="line"/>
      <point x="90" y="17" type="line"/>
      <point x="90" y="650" type="line"/>
      <point x="27" y="650" type="line"/>
      <point x="27" y="667" type="line"/>
      <point x="273" y="667" type="line"/>
      <point x="273" y="650" type="line"/>
      <point x="203" y="650" type="line"/>
      <point x="203" y="17" type="line"/>
      <point x="320" y="17" type="line" smooth="yes"/>
      <point x="366" y="17"/>
      <point x="435" y="26"/>
      <point x="481" y="66"/>
      <point x="504" y="148"/>
      <point x="504" y="221" type="qcurve"/>
    </contour>
  </outline>
</glyph>
<glyph name="Lcommaaccent" format="2">
  <advance width="540"/>
  <unicode hex="013B"/>
  <outline>
    <contour>
      <point x="284" y="-292" type="line"/>
      <point x="292" y="-282"/>
      <point x="311" y="-253"/>
      <point x="327" y="-220"/>
      <point x="337" y="-183"/>
      <point x="337" y="-163" type="qcurve" smooth="yes"/>
      <point x="337" y="-146"/>
      <point x="327" y="-108"/>
      <point x="315" y="-88" type="qcurve"/>
      <point x="308" y="-94" type="line"/>
      <point x="312" y="-103"/>
      <point x="312" y="-113" type="qcurve" smooth="yes"/>
      <point x="312" y="-124"/>
      <point x="296" y="-146"/>
      <point x="274" y="-146" type="qcurve" smooth="yes"/>
      <point x="257" y="-146"/>
      <point x="235" y="-119"/>
      <point x="235" y="-99" type="qcurve" smooth="yes"/>
      <point x="235" y="-75"/>
      <point x="266" y="-46"/>
      <point x="285" y="-46" type="qcurve" smooth="yes"/>
      <point x="303" y="-46"/>
      <point x="330" y="-65"/>
      <point x="349" y="-95"/>
      <point x="358" y="-133"/>
      <point x="358" y="-152" type="qcurve" smooth="yes"/>
      <point x="358" y="-180"/>
      <point x="351" y="-222"/>
      <point x="335" y="-258"/>
      <point x="311" y="-289"/>
      <point x="294" y="-306" type="qcurve"/>
    </contour>
    <contour>
      <point x="520" y="221" type="line"/>
      <point x="520" y="0" type="line"/>
      <point x="27" y="0" type="line"/>
      <point x="27" y="17" type="line"/>
      <point x="90" y="17" type="line"/>
      <point x="90" y="650" type="line"/>
      <point x="27" y="650" type="line"/>
      <point x="27" y="667" type="line"/>
      <point x="273" y="667" type="line"/>
      <point x="273" y="650" type="line"/>
      <point x="203" y="650" type="line"/>
      <point x="203" y="17" type="line"/>
      <point x="320" y="17" type="line" smooth="yes"/>
      <point x="366" y="17"/>
      <point x="435" y="26"/>
      <point x="481" y="66"/>
      <point x="504" y="148"/>
      <point x="504" y="221" type="qcurve"/>
    </contour>
  </outline>
</glyph>
<glyph name="ncommaaccent" format="2">
  <advance width="626"/>
  <unicode hex="0146"/>
  <outline>
    <contour>
      <point x="284" y="-292" type="line"/>
      <point x="292" y="-282"/>
      <point x="311" y="-253"/>
      <point x="327" y="-220"/>
      <point x="337" y="-183"/>
      <point x="337" y="-163" type="qcurve" smooth="yes"/>
      <point x="337" y="-146"/>
      <point x="327" y="-108"/>
      <point x="315" y="-88" type="qcurve"/>
      <point x="308" y="-94" type="line"/>
      <point x="312" y="-103"/>
      <point x="312" y="-113" type="qcurve" smooth="yes"/>
      <point x="312" y="-124"/>
      <point x="296" y="-146"/>
      <point x="274" y="-146" type="qcurve" smooth="yes"/>
      <point x="257" y="-146"/>
      <point x="235" y="-119"/>
      <point x="235" y="-99" type="qcurve" smooth="yes"/>
      <point x="235" y="-75"/>
      <point x="266" y="-46"/>
      <point x="285" y="-46" type="qcurve" smooth="yes"/>
      <point x="303" y="-46"/>
      <point x="330" y="-65"/>
      <point x="349" y="-95"/>
      <point x="358" y="-133"/>
      <point x="358" y="-152" type="qcurve" smooth="yes"/>
      <point x="358" y="-180"/>
      <point x="351" y="-222"/>
      <point x="335" y="-258"/>
      <point x="311" y="-289"/>
      <point x="294" y="-306" type="qcurve"/>
    </contour>
    <contour>
      <point x="21" y="17" type="line"/>
      <point x="51" y="17"/>
      <point x="85" y="20"/>
      <point x="100" y="37"/>
      <point x="103" y="72"/>
      <point x="103" y="105" type="qcurve" smooth="yes"/>
      <point x="103" y="637" type="line"/>
      <point x="90" y="650" type="line"/>
      <point x="21" y="650" type="line"/>
      <point x="21" y="667" type="line"/>
      <point x="222" y="667" type="line"/>
      <point x="512" y="191" type="line"/>
      <point x="512" y="567" type="line" smooth="yes"/>
      <point x="512" y="599"/>
      <point x="509" y="633"/>
      <point x="497" y="648"/>
      <point x="474" y="650"/>
      <point x="454" y="650" type="qcurve" smooth="yes"/>
      <point x="432" y="650" type="line"/>
      <point x="432" y="667" type="line"/>
      <point x="613" y="667" type="line"/>
      <point x="613" y="650" type="line"/>
      <point x="590" y="650" type="line" smooth="yes"/>
      <point x="570" y="650"/>
      <point x="546" y="648"/>
      <point x="534" y="633"/>
      <point x="531" y="599"/>
      <point x="531" y="567" type="qcurve" smooth="yes"/>
      <point x="531" y="-5" type="line"/>
      <point x="481" y="-5" type="line"/>
      <point x="122" y="589" type="line"/>
      <point x="122" y="122" type="line" smooth="yes"/>
      <point x="122" y="82"/>
      <point x="124" y="39"/>
      <point x="139" y="20"/>
      <point x="173" y="17"/>
      <point x="205" y="17" type="qcurve"/>
      <point x="205" y="0" type="line"/>
      <point x="21" y="0" type="line"/>
    </contour>
  </outline>
</glyph>
<glyph name="Sacute" format="2">
  <advance width="470"/>
  <unicode hex="015A"/>
  <outline>
    <contour>
      <point x="268" y="833" type="line"/>
      <point x="275" y="836"/>
      <point x="292" y="840"/>
      <point x="307" y="843"/>
      <point x="317" y="844"/>
      <point x="318" y="844" type="qcurve"/>
      <point x="327" y="844"/>
      <point x="347" y="838"/>
      <point x="352" y="827" type="qcurve"/>
      <point x="362" y="797"/>
      <point x="343" y="775"/>
      <point x="323" y="763" type="qcurve" smooth="yes"/>
      <point x="309" y="755"/>
      <point x="265" y="734"/>
      <point x="242" y="724" type="qcurve" smooth="yes"/>
      <point x="229" y="719"/>
      <point x="201" y="707"/>
      <point x="187" y="700" type="qcurve"/>
      <point x="181" y="709" type="line"/>
    </contour>
    <contour>
      <point x="51" y="238" type="line"/>
      <point x="66" y="238" type="line"/>
      <point x="70" y="187"/>
      <point x="94" y="104"/>
      <point x="139" y="44"/>
      <point x="207" y="11"/>
      <point x="254" y="11" type="qcurve" smooth="yes"/>
      <point x="313" y="11"/>
      <point x="346" y="46" type="qcurve" smooth="yes"/>
      <point x="361" y="63"/>
      <point x="369" y="95"/>
      <point x="369" y="106" type="qcurve" smooth="yes"/>
      <point x="369" y="122"/>
      <point x="365" y="135" type="qcurve" smooth="yes"/>
      <point x="357" y="164"/>
      <point x="297" y="200"/>
      <point x="255" y="219" type="qcurve" smooth="yes"/>
      <point x="220" y="235"/>
      <point x="147" y="273"/>
      <point x="85" y="330"/>
      <point x="46" y="410"/>
      <point x="46" y="468" type="qcurve" smooth="yes"/>
      <point x="46" y="477"/>
      <point x="47" y="499"/>
      <point x="49" y="510" type="qcurve" smooth="yes"/>
      <point x="60" y="591"/>
      <point x="148" y="670"/>
      <point x="223" y="674" type="qcurve"/>
      <point x="226" y="674" type="line"/>
      <point x="227" y="674" type="line"/>
      <point x="228" y="674" type="line"/>
      <point x="229" y="674" type="line"/>
      <point x="267" y="674"/>
      <point x="321" y="647"/>
      <point x="339" y="634" type="qcurve"/>
      <point x="356" y="620"/>
      <point x="367" y="620" type="qcurve" smooth="yes"/>
      <point x="381" y="620"/>
      <point x="387" y="647"/>
      <point x="387" y="659" type="qcurve"/>
      <point x="403" y="659" type="line"/>
      <point x="403" y="458" type="line"/>
      <point x="386" y="458" type="line"/>
      <point x="379" y="502"/>
      <point x="355" y="575"/>
      <point x="316" y="626"/>
      <point x="260" y="654"/>
      <point x="221" y="654" type="qcurve" smooth="yes"/>
      <point x="165" y="654"/>
      <point x="95" y="597"/>
      <point x="95" y="544" type="qcurve" smooth="yes"/>
      <point x="95" y="540" type="line"/>
      <point x="95" y="539" type="line"/>
      <point x="95" y="538" type="line"/>
      <point x="95" y="537" type="line"/>
      <point x="95" y="536" type="line"/>
      <point x="95" y="535" type="line"/>
      <point x="95" y="534" type="line"/>
      <point x="95" y="533" type="line"/>
      <point x="97" y="506"/>
      <point x="121" y="467"/>
      <point x="159" y="438"/>
      <point x="207" y="416"/>
      <point x="233" y="406" type="qcurve" smooth="yes"/>
      <point x="266" y="393"/>
      <point x="333" y="360"/>
      <point x="390" y="311"/>
      <point x="429" y="241"/>
      <point x="434" y="191" type="qcurve"/>
      <point x="434" y="190" type="line"/>
      <point x="434" y="185" type="line"/>
      <point x="434" y="184" type="line"/>
      <point x="434" y="182" type="line"/>
      <point x="434" y="181" type="line"/>
      <point x="434" y="179" type="line"/>
      <point x="434" y="139"/>
      <point x="408" y="69"/>
      <point x="360" y="17"/>
      <point x="292" y="-13"/>
      <point x="251" y="-13" type="qcurve" smooth="yes"/>
      <point x="212" y="-13"/>
      <point x="152" y="10"/>
      <point x="130" y="21" type="qcurve"/>
      <point x="118" y="28"/>
      <point x="97" y="37"/>
      <point x="87" y="37" type="qcurve" smooth="yes"/>
      <point x="76" y="37"/>
      <point x="67" y="5"/>
      <point x="66" y="-7" type="qcurve"/>
      <point x="51" y="-7" type="line"/>
    </contour>
  </outline>
</glyph>
<glyph name="Scedilla" format="2">
  <advance width="470"/>
  <unicode hex="015E"/>
  <outline>
    <contour>
      <point x="51" y="238" type="line"/>
      <point x="66" y="238" type="line"/>
      <point x="70" y="187"/>
      <point x="94" y="104"/>
      <point x="139" y="44"/>
      <point x="207" y="11"/>
      <point x="254" y="11" type="qcurve" smooth="yes"/>
      <point x="313" y="11"/>
      <point x="346" y="46" type="qcurve" smooth="yes"/>
      <point x="361" y="63"/>
      <point x="369" y="95"/>
      <point x="369" y="106" type="qcurve" smooth="yes"/>
      <point x="369" y="122"/>
      <point x="365" y="135" type="qcurve" smooth="yes"/>
      <point x="357" y="164"/>
      <point x="297" y="200"/>
      <point x="255" y="219" type="qcurve" smooth="yes"/>
      <point x="220" y="235"/>
      <point x="147" y="273"/>
      <point x="85" y="330"/>
      <point x="46" y="410"/>
      <point x="46" y="468" type="qcurve" smooth="yes"/>
      <point x="46" y="477"/>
      <point x="47" y="499"/>
      <point x="49" y="510" type="qcurve" smooth="yes"/>
      <point x="60" y="591"/>
      <point x="148" y="670"/>
      <point x="223" y="674" type="qcurve"/>
      <point x="226" y="674" type="line"/>
      <point x="227" y="674" type="line"/>
      <point x="228" y="674" type="line"/>
      <point x="229" y="674" type="line"/>
      <point x="267" y="674"/>
      <point x="321" y="647"/>
      <point x="339" y="634" type="qcurve"/>
      <point x="356" y="620"/>
      <point x="367" y="620" type="qcurve" smooth="yes"/>
      <point x="381" y="620"/>
      <point x="387" y="647"/>
      <point x="387" y="659" type="qcurve"/>
      <point x="403" y="659" type="line"/>
      <point x="403" y="458" type="line"/>
      <point x="386" y="458" type="line"/>
      <point x="379" y="502"/>
      <point x="355" y="575"/>
      <point x="316" y="626"/>
      <point x="260" y="654"/>
      <point x="221" y="654" type="qcurve" smooth="yes"/>
      <point x="165" y="654"/>
      <point x="95" y="597"/>
      <point x="95" y="544" type="qcurve" smooth="yes"/>
      <point x="95" y="540" type="line"/>
      <point x="95" y="539" type="line"/>
      <point x="95" y="538" type="line"/>
      <point x="95" y="537" type="line"/>
      <point x="95" y="536" type="line"/>
      <point x="95" y="535" type="line"/>
      <point x="95" y="534" type="line"/>
      <point x="95" y="533" type="line"/>
      <point x="97" y="506"/>
      <point x="121" y="467"/>
      <point x="159" y="438"/>
      <point x="207" y="416"/>
      <point x="233" y="406" type="qcurve" smooth="yes"/>
      <point x="266" y="393"/>
      <point x="333" y="360"/>
      <point x="390" y="311"/>
      <point x="429" y="241"/>
      <point x="434" y="191" type="qcurve"/>
      <point x="434" y="190" type="line"/>
      <point x="434" y="185" type="line"/>
      <point x="434" y="184" type="line"/>
      <point x="434" y="182" type="line"/>
      <point x="434" y="181" type="line"/>
      <point x="434" y="179" type="line"/>
      <point x="434" y="139"/>
      <point x="408" y="69"/>
      <point x="360" y="17"/>
      <point x="292" y="-13"/>
      <point x="251" y="-13" type="qcurve" smooth="yes"/>
      <point x="243" y="-13"/>
      <point x="229" y="-12"/>
      <point x="222" y="-11" type="qcurve"/>
      <point x="198" y="-38" type="line"/>
      <point x="219" y="-31"/>
      <point x="240" y="-31" type="qcurve" smooth="yes"/>
      <point x="261" y="-31"/>
      <point x="305" y="-43"/>
      <point x="341" y="-68"/>
      <point x="363" y="-106"/>
      <point x="363" y="-132" type="qcurve" smooth="yes"/>
      <point x="363" y="-161"/>
      <point x="340" y="-201"/>
      <point x="303" y="-225"/>
      <point x="256" y="-236"/>
      <point x="233" y="-236" type="qcurve" smooth="yes"/>
      <point x="218" y="-236"/>
      <point x="186" y="-229"/>
      <point x="160" y="-213"/>
      <point x="143" y="-188"/>
      <point x="143" y="-170" type="qcurve" smooth="yes"/>
      <point x="143" y="-156"/>
      <point x="163" y="-133"/>
      <point x="180" y="-133" type="qcurve" smooth="yes"/>
      <point x="194" y="-133"/>
      <point x="213" y="-148"/>
      <point x="213" y="-161" type="qcurve" smooth="yes"/>
      <point x="213" y="-175"/>
      <point x="195" y="-184"/>
      <point x="181" y="-186" type="qcurve"/>
      <point x="182" y="-195"/>
      <point x="194" y="-206"/>
      <point x="210" y="-214"/>
      <point x="225" y="-217"/>
      <point x="230" y="-217" type="qcurve" smooth="yes"/>
      <point x="257" y="-217"/>
      <point x="284" y="-168"/>
      <point x="284" y="-136" type="qcurve" smooth="yes"/>
      <point x="284" y="-120"/>
      <point x="279" y="-90"/>
      <point x="267" y="-66"/>
      <point x="247" y="-52"/>
      <point x="232" y="-52" type="qcurve" smooth="yes"/>
      <point x="221" y="-52"/>
      <point x="196" y="-62"/>
      <point x="180" y="-76" type="qcurve"/>
      <point x="154" y="-65" type="line"/>
      <point x="203" y="-8" type="line"/>
      <point x="182" y="-2" type="line"/>
      <point x="167" y="4"/>
      <point x="141" y="16"/>
      <point x="130" y="21" type="qcurve"/>
      <point x="118" y="28"/>
      <point x="97" y="37"/>
      <point x="87" y="37" type="qcurve" smooth="yes"/>
      <point x="76" y="37"/>
      <point x="67" y="5"/>
      <point x="66" y="-7" type="qcurve"/>
      <point x="51" y="-7" type="line"/>
    </contour>
  </outline>
</glyph>
<glyph name="Scaron" format="2">
  <advance width="470"/>
  <unicode hex="0160"/>
  <outline>
    <contour>
      <point x="288" y="719" type="line"/>
      <point x="277" y="716"/>
      <point x="254" y="708"/>
      <point x="237" y="708" type="qcurve" smooth="yes"/>
      <point x="229" y="708"/>
      <point x="213" y="712"/>
      <point x="200" y="719" type="qcurve"/>
      <point x="113" y="843" type="line"/>
      <point x="119" y="852" type="line"/>
      <point x="131" y="847"/>
      <point x="155" y="837"/>
      <point x="166" y="832" type="qcurve" smooth="yes"/>
      <point x="186" y="823"/>
      <point x="228" y="803"/>
      <point x="244" y="795" type="qcurve"/>
      <point x="259" y="803"/>
      <point x="302" y="823"/>
      <point x="322" y="832" type="qcurve" smooth="yes"/>
      <point x="333" y="837"/>
      <point x="357" y="847"/>
      <point x="369" y="852" type="qcurve"/>
      <point x="375" y="843" type="line"/>
    </contour>
    <contour>
      <point x="51" y="238" type="line"/>
      <point x="66" y="238" type="line"/>
      <point x="70" y="187"/>
      <point x="94" y="104"/>
      <point x="139" y="44"/>
      <point x="207" y="11"/>
      <point x="254" y="11" type="qcurve" smooth="yes"/>
      <point x="313" y="11"/>
      <point x="346" y="46" type="qcurve" smooth="yes"/>
      <point x="361" y="63"/>
      <point x="369" y="95"/>
      <point x="369" y="106" type="qcurve" smooth="yes"/>
      <point x="369" y="122"/>
      <point x="365" y="135" type="qcurve" smooth="yes"/>
      <point x="357" y="164"/>
      <point x="297" y="200"/>
      <point x="255" y="219" type="qcurve" smooth="yes"/>
      <point x="220" y="235"/>
      <point x="147" y="273"/>
      <point x="85" y="330"/>
      <point x="46" y="410"/>
      <point x="46" y="468" type="qcurve" smooth="yes"/>
      <point x="46" y="477"/>
      <point x="47" y="499"/>
      <point x="49" y="510" type="qcurve" smooth="yes"/>
      <point x="60" y="591"/>
      <point x="148" y="670"/>
      <point x="223" y="674" type="qcurve"/>
      <point x="226" y="674" type="line"/>
      <point x="227" y="674" type="line"/>
      <point x="228" y="674" type="line"/>
      <point x="229" y="674" type="line"/>
      <point x="267" y="674"/>
      <point x="321" y="647"/>
      <point x="339" y="634" type="qcurve"/>
      <point x="356" y="620"/>
      <point x="367" y="620" type="qcurve" smooth="yes"/>
      <point x="381" y="620"/>
      <point x="387" y="647"/>
      <point x="387" y="659" type="qcurve"/>
      <point x="403" y="659" type="line"/>
      <point x="403" y="458" type="line"/>
      <point x="386" y="458" type="line"/>
      <point x="379" y="502"/>
      <point x="355" y="575"/>
      <point x="316" y="626"/>
      <point x="260" y="654"/>
      <point x="221" y="654" type="qcurve" smooth="yes"/>
      <point x="165" y="654"/>
      <point x="95" y="597"/>
      <point x="95" y="544" type="qcurve" smooth="yes"/>
      <point x="95" y="540" type="line"/>
      <point x="95" y="539" type="line"/>
      <point x="95" y="538" type="line"/>
      <point x="95" y="537" type="line"/>
      <point x="95" y="536" type="line"/>
      <point x="95" y="535" type="line"/>
      <point x="95" y="534" type="line"/>
      <point x="95" y="533" type="line"/>
      <point x="97" y="506"/>
      <point x="121" y="467"/>
      <point x="159" y="438"/>
      <point x="207" y="416"/>
      <point x="233" y="406" type="qcurve" smooth="yes"/>
      <point x="266" y="393"/>
      <point x="333" y="360"/>
      <point x="390" y="311"/>
      <point x="429" y="241"/>
      <point x="434" y="191" type="qcurve"/>
      <point x="434" y="190" type="line"/>
      <point x="434" y="185" type="line"/>
      <point x="434" y="184" type="line"/>
      <point x="434" y="182" type="line"/>
      <point x="434" y="181" type="line"/>
      <point x="434" y="179" type="line"/>
      <point x="434" y="139"/>
      <point x="408" y="69"/>
      <point x="360" y="17"/>
      <point x="292" y="-13"/>
      <point x="251" y="-13" type="qcurve" smooth="yes"/>
      <point x="212" y="-13"/>
      <point x="152" y="10"/>
      <point x="130" y="21" type="qcurve"/>
      <point x="118" y="28"/>
      <point x="97" y="37"/>
      <point x="87" y="37" type="qcurve" smooth="yes"/>
      <point x="76" y="37"/>
      <point x="67" y="5"/>
      <point x="66" y="-7" type="qcurve"/>
      <point x="51" y="-7" type="line"/>
    </contour>
  </outline>
</glyph>
<glyph name="Tcommaaccent" format="2">
  <advance width="526"/>
  <unicode hex="0162"/>
  <outline>
    <contour>
      <point x="235" y="-294" type="line"/>
      <point x="243" y="-284"/>
      <point x="262" y="-255"/>
      <point x="278" y="-222"/>
      <point x="288" y="-185"/>
      <point x="288" y="-165" type="qcurve" smooth="yes"/>
      <point x="288" y="-148"/>
      <point x="278" y="-110"/>
      <point x="266" y="-90" type="qcurve"/>
      <point x="259" y="-96" type="line"/>
      <point x="263" y="-105"/>
      <point x="263" y="-115" type="qcurve" smooth="yes"/>
      <point x="263" y="-126"/>
      <point x="247" y="-148"/>
      <point x="225" y="-148" type="qcurve" smooth="yes"/>
      <point x="208" y="-148"/>
      <point x="186" y="-121"/>
      <point x="186" y="-101" type="qcurve" smooth="yes"/>
      <point x="186" y="-77"/>
      <point x="217" y="-48"/>
      <point x="236" y="-48" type="qcurve" smooth="yes"/>
      <point x="254" y="-48"/>
      <point x="281" y="-67"/>
      <point x="300" y="-97"/>
      <point x="309" y="-135"/>
      <point x="309" y="-154" type="qcurve" smooth="yes"/>
      <point x="309" y="-182"/>
      <point x="302" y="-224"/>
      <point x="286" y="-260"/>
      <point x="262" y="-291"/>
      <point x="245" y="-308" type="qcurve"/>
    </contour>
    <contour>
      <point x="207" y="650" type="line"/>
      <point x="193" y="650" type="line" smooth="yes"/>
      <point x="145" y="650"/>
      <point x="83" y="635"/>
      <point x="46" y="594"/>
      <point x="31" y="523"/>
      <point x="31" y="466" type="qcurve"/>
      <point x="13" y="466" type="line"/>
      <point x="15" y="518"/>
      <point x="16" y="616"/>
      <point x="18" y="667" type="qcurve"/>
      <point x="513" y="667" type="line"/>
      <point x="514" y="616"/>
      <point x="515" y="518"/>
      <point x="516" y="466" type="qcurve"/>
      <point x="500" y="466" type="line"/>
      <point x="500" y="527"/>
      <point x="484" y="600"/>
      <point x="445" y="639"/>
      <point x="377" y="650"/>
      <point x="325" y="650" type="qcurve"/>
      <point x="325" y="17" type="line"/>
      <point x="393" y="17" type="line"/>
      <point x="393" y="0" type="line"/>
      <point x="136" y="0" type="line"/>
      <point x="136" y="17" type="line"/>
      <point x="207" y="17" type="line"/>
    </contour>
  </outline>
</glyph>
<glyph name="Uogonek" format="2">
  <advance width="623"/>
  <unicode hex="0172"/>
  <outline>
    <contour>
      <point x="616" y="650" type="line"/>
      <point x="600" y="650" type="line" smooth="yes"/>
      <point x="580" y="650"/>
      <point x="555" y="648"/>
      <point x="540" y="633"/>
      <point x="535" y="599"/>
      <point x="535" y="568" type="qcurve" smooth="yes"/>
      <point x="535" y="227" type="line" smooth="yes"/>
      <point x="535" y="97"/>
      <point x="483" y="42" type="qcurve" smooth="yes"/>
      <point x="437" y="-6"/>
      <point x="353" y="-13" type="qcurve"/>
      <point x="346" y="-22"/>
      <point x="338" y="-39" type="qcurve"/>
      <point x="327" y="-57"/>
      <point x="309" y="-104"/>
      <point x="306" y="-128" type="qcurve" smooth="yes"/>
      <point x="305" y="-133"/>
      <point x="305" y="-141"/>
      <point x="305" y="-145" type="qcurve" smooth="yes"/>
      <point x="305" y="-163"/>
      <point x="320" y="-190"/>
      <point x="335" y="-190" type="qcurve"/>
      <point x="336" y="-190"/>
      <point x="348" y="-189"/>
      <point x="357" y="-181" type="qcurve" smooth="yes"/>
      <point x="370" y="-170"/>
      <point x="385" y="-156"/>
      <point x="390" y="-152" type="qcurve" smooth="yes"/>
      <point x="392" y="-150"/>
      <point x="396" y="-147"/>
      <point x="397" y="-146" type="qcurve"/>
      <point x="410" y="-154" type="line"/>
      <point x="408" y="-156"/>
      <point x="404" y="-161"/>
      <point x="402" y="-165" type="qcurve"/>
      <point x="397" y="-171"/>
      <point x="380" y="-190"/>
      <point x="366" y="-204" type="qcurve" smooth="yes"/>
      <point x="348" y="-223"/>
      <point x="311" y="-233"/>
      <point x="297" y="-233" type="qcurve" smooth="yes"/>
      <point x="291" y="-233"/>
      <point x="270" y="-229"/>
      <point x="245" y="-220"/>
      <point x="220" y="-204"/>
      <point x="211" y="-191" type="qcurve" smooth="yes"/>
      <point x="205" y="-183"/>
      <point x="200" y="-171"/>
      <point x="199" y="-166" type="qcurve" smooth="yes"/>
      <point x="198" y="-161"/>
      <point x="199" y="-156" type="qcurve"/>
      <point x="199" y="-139"/>
      <point x="214" y="-122" type="qcurve" smooth="yes"/>
      <point x="240" y="-92"/>
      <point x="286" y="-47"/>
      <point x="305" y="-31" type="qcurve" smooth="yes"/>
      <point x="310" y="-26"/>
      <point x="320" y="-18"/>
      <point x="325" y="-14" type="qcurve"/>
      <point x="324" y="-14" type="line"/>
      <point x="292" y="-14"/>
      <point x="213" y="-4"/>
      <point x="142" y="27"/>
      <point x="89" y="83"/>
      <point x="83" y="129" type="qcurve" smooth="yes"/>
      <point x="82" y="134"/>
      <point x="81" y="149"/>
      <point x="81" y="157" type="qcurve" smooth="yes"/>
      <point x="81" y="160" type="line"/>
      <point x="81" y="161" type="line"/>
      <point x="81" y="166" type="line"/>
      <point x="81" y="167" type="line"/>
      <point x="81" y="171" type="line"/>
      <point x="81" y="172" type="line"/>
      <point x="81" y="650" type="line"/>
      <point x="18" y="650" type="line"/>
      <point x="18" y="667" type="line"/>
      <point x="271" y="667" type="line"/>
      <point x="271" y="650" type="line"/>
      <point x="207" y="650" type="line"/>
      <point x="207" y="219" type="line" smooth="yes"/>
      <point x="207" y="173"/>
      <point x="218" y="96"/>
      <point x="249" y="40"/>
      <point x="303" y="8"/>
      <point x="345" y="8" type="qcurve" smooth="yes"/>
      <point x="391" y="8"/>
      <point x="456" y="41"/>
      <point x="495" y="102"/>
      <point x="513" y="189"/>
      <point x="513" y="242" type="qcurve" smooth="yes"/>
      <point x="513" y="568" type="line" smooth="yes"/>
      <point x="513" y="600"/>
      <point x="504" y="634"/>
      <point x="490" y="650"/>
      <point x="472" y="652"/>
      <point x="463" y="652" type="qcurve" smooth="yes"/>
      <point x="459" y="652"/>
      <point x="450" y="652"/>
      <point x="445" y="651" type="qcurve"/>
      <point x="440" y="651"/>
      <point x="429" y="650"/>
      <point x="422" y="650" type="qcurve"/>
      <point x="422" y="667" type="line"/>
      <point x="616" y="667" type="line"/>
    </contour>
  </outline>
</glyph>
<glyph name="ycircumflex" format="2">
  <advance width="483"/>
  <unicode hex="0177"/>
  <outline>
    <contour>
      <point x="382" y="717" type="line"/>
      <point x="376" y="708" type="line"/>
      <point x="364" y="713"/>
      <point x="340" y="723"/>
      <point x="329" y="728" type="qcurve" smooth="yes"/>
      <point x="309" y="736"/>
      <point x="266" y="757"/>
      <point x="251" y="765" type="qcurve"/>
      <point x="249" y="764" type="line" smooth="yes"/>
      <point x="244" y="761"/>
      <point x="239" y="759" type="qcurve" smooth="yes"/>
      <point x="237" y="758" type="line" smooth="yes"/>
      <point x="233" y="756"/>
      <point x="232" y="755" type="qcurve"/>
      <point x="231" y="755" type="line"/>
      <point x="228" y="754"/>
      <point x="222" y="750" type="qcurve"/>
      <point x="220" y="750" type="line"/>
      <point x="214" y="747" type="line" smooth="yes"/>
      <point x="203" y="742"/>
      <point x="183" y="732"/>
      <point x="173" y="728" type="qcurve" smooth="yes"/>
      <point x="162" y="723"/>
      <point x="138" y="713"/>
      <point x="126" y="708" type="qcurve"/>
      <point x="120" y="717" type="line"/>
      <point x="207" y="841" type="line"/>
      <point x="220" y="848"/>
      <point x="236" y="852"/>
      <point x="244" y="852" type="qcurve" smooth="yes"/>
      <point x="261" y="852"/>
      <point x="284" y="844"/>
      <point x="295" y="841" type="qcurve"/>
    </contour>
    <contour>
      <point x="333" y="667" type="line"/>
      <point x="510" y="667" type="line"/>
      <point x="510" y="651" type="line"/>
      <point x="489" y="651" type="line" smooth="yes"/>
      <point x="475" y="651"/>
      <point x="457" y="646"/>
      <point x="442" y="631"/>
      <point x="429" y="603"/>
      <point x="420" y="581" type="qcurve" smooth="yes"/>
      <point x="295" y="266" type="line"/>
      <point x="295" y="17" type="line"/>
      <point x="359" y="17" type="line"/>
      <point x="359" y="0" type="line"/>
      <point x="124" y="0" type="line"/>
      <point x="124" y="17" type="line"/>
      <point x="187" y="17" type="line"/>
      <point x="187" y="243" type="line"/>
      <point x="30" y="650" type="line"/>
      <point x="-23" y="650" type="line"/>
      <point x="-23" y="667" type="line"/>
      <point x="216" y="667" type="line"/>
      <point x="216" y="650" type="line"/>
      <point x="153" y="650" type="line"/>
      <point x="286" y="304" type="line"/>
      <point x="383" y="541" type="line" smooth="yes"/>
      <point x="386" y="547"/>
      <point x="395" y="570"/>
      <point x="402" y="595"/>
      <point x="408" y="619"/>
      <point x="408" y="625" type="qcurve" smooth="yes"/>
      <point x="408" y="642"/>
      <point x="377" y="651"/>
      <point x="359" y="651" type="qcurve" smooth="yes"/>
      <point x="352" y="651"/>
      <point x="340" y="650"/>
      <point x="335" y="650" type="qcurve"/>
      <point x="333" y="650" type="line"/>
    </contour>
  </outline>
</glyph>
<glyph name="zacute" format="2">
  <advance width="519"/>
  <unicode hex="017A"/>
  <outline>
    <contour>
      <point x="289" y="833" type="line"/>
      <point x="296" y="836"/>
      <point x="313" y="840"/>
      <point x="328" y="843"/>
      <point x="338" y="844"/>
      <point x="339" y="844" type="qcurve"/>
      <point x="348" y="844"/>
      <point x="368" y="838"/>
      <point x="373" y="827" type="qcurve"/>
      <point x="383" y="797"/>
      <point x="364" y="775"/>
      <point x="344" y="763" type="qcurve" smooth="yes"/>
      <point x="330" y="755"/>
      <point x="286" y="734"/>
      <point x="263" y="724" type="qcurve" smooth="yes"/>
      <point x="250" y="719"/>
      <point x="222" y="707"/>
      <point x="208" y="700" type="qcurve"/>
      <point x="202" y="709" type="line"/>
    </contour>
    <contour>
      <point x="32" y="0" type="line"/>
      <point x="353" y="647" type="line"/>
      <point x="310" y="647" type="line" smooth="yes"/>
      <point x="241" y="647"/>
      <point x="153" y="636"/>
      <point x="130" y="623" type="qcurve"/>
      <point x="130" y="624" type="line"/>
      <point x="81" y="599"/>
      <point x="81" y="521" type="qcurve" smooth="yes"/>
      <point x="81" y="482" type="line"/>
      <point x="65" y="482" type="line"/>
      <point x="65" y="667" type="line"/>
      <point x="496" y="667" type="line"/>
      <point x="167" y="17" type="line"/>
      <point x="240" y="17" type="line" smooth="yes"/>
      <point x="304" y="17"/>
      <point x="396" y="31"/>
      <point x="454" y="63"/>
      <point x="481" y="113"/>
      <point x="481" y="148" type="qcurve" smooth="yes"/>
      <point x="481" y="193" type="line"/>
      <point x="498" y="193" type="line"/>
      <point x="498" y="0" type="line"/>
    </contour>
  </outline>
</glyph>
<glyph name="scommaaccent" format="2">
  <advance width="470"/>
  <unicode hex="0219"/>
  <outline>
    <contour>
      <point x="235" y="-294" type="line"/>
      <point x="243" y="-284"/>
      <point x="262" y="-255"/>
      <point x="278" y="-222"/>
      <point x="288" y="-185"/>
      <point x="288" y="-165" type="qcurve" smooth="yes"/>
      <point x="288" y="-148"/>
      <point x="278" y="-110"/>
      <point x="266" y="-90" type="qcurve"/>
      <point x="259" y="-96" type="line"/>
      <point x="263" y="-105"/>
      <point x="263" y="-115" type="qcurve" smooth="yes"/>
      <point x="263" y="-126"/>
      <point x="247" y="-148"/>
      <point x="225" y="-148" type="qcurve" smooth="yes"/>
      <point x="208" y="-148"/>
      <point x="186" y="-121"/>
      <point x="186" y="-101" type="qcurve" smooth="yes"/>
      <point x="186" y="-77"/>
      <point x="217" y="-48"/>
      <point x="236" y="-48" type="qcurve" smooth="yes"/>
      <point x="254" y="-48"/>
      <point x="281" y="-67"/>
      <point x="300" y="-97"/>
      <point x="309" y="-135"/>
      <point x="309" y="-154" type="qcurve" smooth="yes"/>
      <point x="309" y="-182"/>
      <point x="302" y="-224"/>
      <point x="286" y="-260"/>
      <point x="262" y="-291"/>
      <point x="245" y="-308" type="qcurve"/>
    </contour>
    <contour>
      <point x="51" y="238" type="line"/>
      <point x="66" y="238" type="line"/>
      <point x="70" y="187"/>
      <point x="94" y="104"/>
      <point x="139" y="44"/>
      <point x="207" y="11"/>
      <point x="254" y="11" type="qcurve" smooth="yes"/>
      <point x="313" y="11"/>
      <point x="346" y="46" type="qcurve" smooth="yes"/>
      <point x="361" y="63"/>
      <point x="369" y="95"/>
      <point x="369" y="106" type="qcurve" smooth="yes"/>
      <point x="369" y="122"/>
      <point x="365" y="135" type="qcurve" smooth="yes"/>
      <point x="357" y="164"/>
      <point x="297" y="200"/>
      <point x="255" y="219" type="qcurve" smooth="yes"/>
      <point x="220" y="235"/>
      <point x="147" y="273"/>
      <point x="85" y="330"/>
      <point x="46" y="410"/>
      <point x="46" y="468" type="qcurve" smooth="yes"/>
      <point x="46" y="477"/>
      <point x="47" y="499"/>
      <point x="49" y="510" type="qcurve" smooth="yes"/>
      <point x="60" y="591"/>
      <point x="148" y="670"/>
      <point x="223" y="674" type="qcurve"/>
      <point x="226" y="674" type="line"/>
      <point x="227" y="674" type="line"/>
      <point x="228" y="674" type="line"/>
      <point x="229" y="674" type="line"/>
      <point x="267" y="674"/>
      <point x="321" y="647"/>
      <point x="339" y="634" type="qcurve"/>
      <point x="356" y="620"/>
      <point x="367" y="620" type="qcurve" smooth="yes"/>
      <point x="381" y="620"/>
      <point x="387" y="647"/>
      <point x="387" y="659" type="qcurve"/>
      <point x="403" y="659" type="line"/>
      <point x="403" y="458" type="line"/>
      <point x="386" y="458" type="line"/>
      <point x="379" y="502"/>
      <point x="355" y="575"/>
      <point x="316" y="626"/>
      <point x="260" y="654"/>
      <point x="221" y="654" type="qcurve" smooth="yes"/>
      <point x="165" y="654"/>
      <point x="95" y="597"/>
      <point x="95" y="544" type="qcurve" smooth="yes"/>
      <point x="95" y="540" type="line"/>
      <point x="95" y="539" type="line"/>
      <point x="95" y="538" type="line"/>
      <point x="95" y="537" type="line"/>
      <point x="95" y="536" type="line"/>
      <point x="95" y="535" type="line"/>
      <point x="95" y="534" type="line"/>
      <point x="95" y="533" type="line"/>
      <point x="97" y="506"/>
      <point x="121" y="467"/>
      <point x="159" y="438"/>
      <point x="207" y="416"/>
      <point x="233" y="406" type="qcurve" smooth="yes"/>
      <point x="266" y="393"/>
      <point x="333" y="360"/>
      <point x="390" y="311"/>
      <point x="429" y="241"/>
      <point x="434" y="191" type="qcurve"/>
      <point x="434" y="190" type="line"/>
      <point x="434" y="185" type="line"/>
      <point x="434" y="184" type="line"/>
      <point x="434" y="182" type="line"/>
      <point x="434" y="181" type="line"/>
      <point x="434" y="179" type="line"/>
      <point x="434" y="139"/>
      <point x="408" y="69"/>
      <point x="360" y="17"/>
      <point x="292" y="-13"/>
      <point x="251" y="-13" type="qcurve" smooth="yes"/>
      <point x="212" y="-13"/>
      <point x="152" y="10"/>
      <point x="130" y="21" type="qcurve"/>
      <point x="118" y="28"/>
      <point x="97" y="37"/>
      <point x="87" y="37" type="qcurve" smooth="yes"/>
      <point x="76" y="37"/>
      <point x="67" y="5"/>
      <point x="66" y="-7" type="qcurve"/>
      <point x="51" y="-7" type="line"/>
    </contour>
  </outline>
</glyph>
<glyph name="circumflex" format="2">
  <advance width="313"/>
  <unicode hex="02C6"/>
  <outline>
    <contour>
      <point x="279" y="717" type="line"/>
      <point x="273" y="708" type="line"/>
      <point x="261" y="713"/>
      <point x="237" y="723"/>
      <point x="226" y="728" type="qcurve" smooth="yes"/>
      <point x="206" y="737"/>
      <point x="163" y="757"/>
      <point x="148" y="765" type="qcurve"/>
      <point x="132" y="757"/>
      <point x="90" y="737"/>
      <point x="70" y="728" type="qcurve" smooth="yes"/>
      <point x="59" y="723"/>
      <point x="35" y="713"/>
      <point x="23" y="708" type="qcurve"/>
      <point x="17" y="717" type="line"/>
      <point x="104" y="841" type="line"/>
      <point x="117" y="848"/>
      <point x="133" y="852"/>
      <point x="141" y="852" type="qcurve" smooth="yes"/>
      <point x="158" y="852"/>
      <point x="181" y="844"/>
      <point x="192" y="841" type="qcurve"/>
    </contour>
  </outline>
</glyph>
<glyph name="ogonek" format="2">
  <advance width="258"/>
  <unicode hex="02DB"/>
  <outline>
    <contour>
      <point x="225" y="-154" type="line"/>
      <point x="223" y="-156"/>
      <point x="219" y="-161"/>
      <point x="217" y="-165" type="qcurve"/>
      <point x="212" y="-171"/>
      <point x="195" y="-190"/>
      <point x="181" y="-204" type="qcurve" smooth="yes"/>
      <point x="163" y="-223"/>
      <point x="126" y="-233"/>
      <point x="112" y="-233" type="qcurve" smooth="yes"/>
      <point x="106" y="-233"/>
      <point x="85" y="-229"/>
      <point x="60" y="-220"/>
      <point x="35" y="-204"/>
      <point x="26" y="-191" type="qcurve" smooth="yes"/>
      <point x="20" y="-183"/>
      <point x="15" y="-171"/>
      <point x="14" y="-166" type="qcurve" smooth="yes"/>
      <point x="13" y="-161"/>
      <point x="14" y="-156" type="qcurve"/>
      <point x="14" y="-139"/>
      <point x="29" y="-122" type="qcurve" smooth="yes"/>
      <point x="83" y="-62"/>
      <point x="158" y="1"/>
      <point x="166" y="6" type="qcurve"/>
      <point x="183" y="6" type="line"/>
      <point x="181" y="4"/>
      <point x="163" y="-20"/>
      <point x="142" y="-57"/>
      <point x="124" y="-104"/>
      <point x="121" y="-128" type="qcurve" smooth="yes"/>
      <point x="120" y="-133"/>
      <point x="120" y="-141"/>
      <point x="120" y="-145" type="qcurve" smooth="yes"/>
      <point x="120" y="-163"/>
      <point x="135" y="-190"/>
      <point x="150" y="-190" type="qcurve"/>
      <point x="151" y="-190"/>
      <point x="163" y="-189"/>
      <point x="172" y="-181" type="qcurve" smooth="yes"/>
      <point x="185" y="-170"/>
      <point x="200" y="-156"/>
      <point x="205" y="-152" type="qcurve" smooth="yes"/>
      <point x="207" y="-150"/>
      <point x="211" y="-147"/>
      <point x="212" y="-146" type="qcurve"/>
    </contour>
  </outline>
</glyph>
<glyph name="hungarumlaut" format="2">
  <advance width="332"/>
  <unicode hex="02DD"/>
  <outline>
    <contour>
      <point x="83" y="650" type="line"/>
      <point x="94" y="659"/>
      <point x="130" y="677"/>
      <point x="144" y="677" type="qcurve"/>
      <point x="145" y="677"/>
      <point x="157" y="676"/>
      <point x="165" y="667" type="qcurve"/>
      <point x="174" y="653"/>
      <point x="178" y="639"/>
      <point x="178" y="634" type="qcurve" smooth="yes"/>
      <point x="178" y="628"/>
      <point x="168" y="611"/>
      <point x="154" y="597" type="qcurve" smooth="yes"/>
      <point x="143" y="586"/>
      <point x="105" y="553"/>
      <point x="86" y="538" type="qcurve" smooth="yes"/>
      <point x="75" y="529"/>
      <point x="52" y="511"/>
      <point x="39" y="501" type="qcurve"/>
      <point x="31" y="508" type="line"/>
    </contour>
    <contour>
      <point x="220" y="650" type="line"/>
      <point x="231" y="659"/>
      <point x="267" y="677"/>
      <point x="281" y="677" type="qcurve"/>
      <point x="282" y="677"/>
      <point x="294" y="676"/>
      <point x="302" y="667" type="qcurve"/>
      <point x="311" y="653"/>
      <point x="315" y="639"/>
      <point x="315" y="634" type="qcurve" smooth="yes"/>
      <point x="315" y="628"/>
      <point x="305" y="611"/>
      <point x="291" y="597" type="qcurve" smooth="yes"/>
      <point x="280" y="586"/>
      <point x="242" y="553"/>
      <point x="223" y="538" type="qcurve" smooth="yes"/>
      <point x="212" y="529"/>
      <point x="189" y="511"/>
      <point x="176" y="501" type="qcurve"/>
      <point x="168" y="508" type="line"/>
    </contour>
  </outline>
</glyph>
<glyph name="gravecomb" format="2">
  <advance width="225"/>
  <unicode hex="0300"/>
  <outline>
    <contour>
      <point x="199" y="709" type="line"/>
      <point x="193" y="700" type="line"/>
      <point x="179" y="707"/>
      <point x="151" y="719"/>
      <point x="138" y="724" type="qcurve" smooth="yes"/>
      <point x="115" y="734"/>
      <point x="70" y="755"/>
      <point x="57" y="763" type="qcurve" smooth="yes"/>
      <point x="36" y="775"/>
      <point x="18" y="798"/>
      <point x="28" y="827" type="qcurve"/>
      <point x="33" y="838"/>
      <point x="53" y="844"/>
      <point x="62" y="844" type="qcurve"/>
      <point x="63" y="844"/>
      <point x="73" y="843"/>
      <point x="88" y="840"/>
      <point x="105" y="836"/>
      <point x="112" y="833" type="qcurve"/>
    </contour>
  </outline>
</glyph>
<glyph name="acutecomb" format="2">
  <advance width="206"/>
  <unicode hex="0301"/>
  <outline>
    <contour>
      <point x="105" y="833" type="line"/>
      <point x="112" y="836"/>
      <point x="129" y="840"/>
      <point x="144" y="843"/>
      <point x="154" y="844"/>
      <point x="155" y="844" type="qcurve"/>
      <point x="164" y="844"/>
      <point x="184" y="838"/>
      <point x="189" y="827" type="qcurve"/>
      <point x="199" y="797"/>
      <point x="180" y="775"/>
      <point x="160" y="763" type="qcurve" smooth="yes"/>
      <point x="146" y="755"/>
      <point x="102" y="734"/>
      <point x="79" y="724" type="qcurve" smooth="yes"/>
      <point x="66" y="719"/>
      <point x="38" y="707"/>
      <point x="24" y="700" type="qcurve"/>
      <point x="18" y="709" type="line"/>
    </contour>
  </outline>
</glyph>
<glyph name="uni0302" format="2">
  <advance width="288"/>
  <unicode hex="0302"/>
  <outline>
    <contour>
      <point x="278" y="717" type="line"/>
      <point x="272" y="708" type="line"/>
      <point x="260" y="713"/>
      <point x="236" y="723"/>
      <point x="225" y="728" type="qcurve" smooth="yes"/>
      <point x="205" y="736"/>
      <point x="162" y="757"/>
      <point x="147" y="765" type="qcurve"/>
      <point x="145" y="764" type="line" smooth="yes"/>
      <point x="141" y="762"/>
      <point x="133" y="757"/>
      <point x="128" y="755" type="qcurve"/>
      <point x="127" y="755" type="line"/>
      <point x="124" y="754"/>
      <point x="118" y="750" type="qcurve"/>
      <point x="116" y="750" type="line"/>
      <point x="110" y="747" type="line" smooth="yes"/>
      <point x="99" y="742"/>
      <point x="79" y="732"/>
      <point x="69" y="728" type="qcurve" smooth="yes"/>
      <point x="58" y="723"/>
      <point x="34" y="713"/>
      <point x="22" y="708" type="qcurve"/>
      <point x="16" y="717" type="line"/>
      <point x="103" y="841" type="line"/>
      <point x="116" y="848"/>
      <point x="132" y="852"/>
      <point x="140" y="852" type="qcurve" smooth="yes"/>
      <point x="157" y="852"/>
      <point x="180" y="844"/>
      <point x="191" y="841" type="qcurve"/>
    </contour>
  </outline>
</glyph>
<glyph name="tildecomb" format="2">
  <advance width="285"/>
  <unicode hex="0303"/>
  <outline>
    <contour>
      <point x="230" y="771" type="qcurve"/>
      <point x="243" y="773"/>
      <point x="262" y="796"/>
      <point x="267" y="808" type="qcurve"/>
      <point x="267" y="805" type="line"/>
      <point x="278" y="804" type="line"/>
      <point x="275" y="791"/>
      <point x="263" y="757"/>
      <point x="245" y="726"/>
      <point x="218" y="703"/>
      <point x="200" y="701" type="qcurve"/>
      <point x="199" y="701" type="line"/>
      <point x="197" y="701" type="line"/>
      <point x="196" y="701" type="line"/>
      <point x="195" y="701" type="line"/>
      <point x="185" y="701"/>
      <point x="141" y="714"/>
      <point x="112" y="722" type="qcurve" smooth="yes"/>
      <point x="103" y="724"/>
      <point x="71" y="732"/>
      <point x="64" y="732" type="qcurve"/>
      <point x="62" y="732" type="line"/>
      <point x="61" y="732" type="line"/>
      <point x="49" y="730"/>
      <point x="31" y="708"/>
      <point x="26" y="697" type="qcurve"/>
      <point x="14" y="699" type="line"/>
      <point x="17" y="712"/>
      <point x="29" y="745"/>
      <point x="48" y="775"/>
      <point x="75" y="798"/>
      <point x="93" y="801" type="qcurve"/>
      <point x="95" y="802"/>
      <point x="100" y="802" type="qcurve" smooth="yes"/>
      <point x="110" y="802"/>
      <point x="143" y="792"/>
      <point x="163" y="786" type="qcurve" smooth="yes"/>
      <point x="183" y="780"/>
      <point x="217" y="770"/>
      <point x="225" y="770" type="qcurve" smooth="yes"/>
      <point x="229" y="770"/>
    </contour>
  </outline>
</glyph>
<glyph name="uni030B" format="2">
  <advance width="385"/>
  <unicode hex="030B"/>
  <outline>
    <contour>
      <point x="107" y="833" type="line"/>
      <point x="114" y="836"/>
      <point x="131" y="840"/>
      <point x="146" y="843"/>
      <point x="156" y="844"/>
      <point x="157" y="844" type="qcurve"/>
      <point x="166" y="844"/>
      <point x="186" y="838"/>
      <point x="191" y="827" type="qcurve"/>
      <point x="201" y="797"/>
      <point x="182" y="775"/>
      <point x="162" y="763" type="qcurve" smooth="yes"/>
      <point x="148" y="755"/>
      <point x="104" y="734"/>
      <point x="81" y="724" type="qcurve" smooth="yes"/>
      <point x="68" y="719"/>
      <point x="40" y="707"/>
      <point x="26" y="700" type="qcurve"/>
      <point x="20" y="709" type="line"/>
    </contour>
    <contour>
      <point x="280" y="833" type="line"/>
      <point x="287" y="836"/>
      <point x="304" y="840"/>
      <point x="319" y="843"/>
      <point x="329" y="844"/>
      <point x="330" y="844" type="qcurve"/>
      <point x="339" y="844"/>
      <point x="359" y="838"/>
      <point x="364" y="827" type="qcurve"/>
      <point x="374" y="797"/>
      <point x="355" y="775"/>
      <point x="335" y="763" type="qcurve" smooth="yes"/>
      <point x="322" y="755"/>
      <point x="277" y="734"/>
      <point x="254" y="724" type="qcurve" smooth="yes"/>
      <point x="241" y="719"/>
      <point x="213" y="707"/>
      <point x="199" y="700" type="qcurve"/>
      <point x="193" y="709" type="line"/>
    </contour>
  </outline>
</glyph>
<glyph name="Germandbls" format="2">
  <advance width="709"/>
  <unicode hex="1E9E"/>
  <outline>
    <contour>
      <point x="349" y="414" type="qcurve" smooth="yes"/>
      <point x="349" y="399"/>
      <point x="376" y="366"/>
      <point x="414" y="338"/>
      <point x="452" y="317"/>
      <point x="463" y="314" type="qcurve" smooth="yes"/>
      <point x="496" y="304"/>
      <point x="564" y="279"/>
      <point x="622" y="241"/>
      <point x="663" y="186"/>
      <point x="668" y="147" type="qcurve"/>
      <point x="668" y="139" type="line" smooth="yes"/>
      <point x="668" y="101"/>
      <point x="635" y="44"/>
      <point x="582" y="6"/>
      <point x="515" y="-12"/>
      <point x="481" y="-12" type="qcurve" smooth="yes"/>
      <point x="465" y="-12"/>
      <point x="444" y="-8"/>
      <point x="426" y="-1"/>
      <point x="407" y="9"/>
      <point x="392" y="15" type="qcurve" smooth="yes"/>
      <point x="381" y="20"/>
      <point x="359" y="27"/>
      <point x="348" y="27" type="qcurve" smooth="yes"/>
      <point x="337" y="27"/>
      <point x="328" y="2"/>
      <point x="327" y="-7" type="qcurve"/>
      <point x="311" y="-7" type="line"/>
      <point x="311" y="183" type="line"/>
      <point x="327" y="183" type="line"/>
      <point x="331" y="140"/>
      <point x="348" y="74"/>
      <point x="383" y="30"/>
      <point x="440" y="7"/>
      <point x="484" y="7" type="qcurve" smooth="yes"/>
      <point x="501" y="7"/>
      <point x="542" y="14"/>
      <point x="578" y="31"/>
      <point x="602" y="60"/>
      <point x="602" y="81" type="qcurve" smooth="yes"/>
      <point x="602" y="109"/>
      <point x="558" y="144"/>
      <point x="492" y="173"/>
      <point x="416" y="201"/>
      <point x="350" y="245"/>
      <point x="306" y="311"/>
      <point x="306" y="362" type="qcurve" smooth="yes"/>
      <point x="306" y="399"/>
      <point x="316" y="422" type="qcurve" smooth="yes"/>
      <point x="326" y="447"/>
      <point x="491" y="655" type="qcurve"/>
      <point x="474" y="656"/>
      <point x="441" y="656"/>
      <point x="427" y="656" type="qcurve" smooth="yes"/>
      <point x="287" y="656"/>
      <point x="261" y="639" type="qcurve" smooth="yes"/>
      <point x="235" y="621"/>
      <point x="222" y="591" type="qcurve" smooth="yes"/>
      <point x="208" y="560"/>
      <point x="200" y="485"/>
      <point x="200" y="448" type="qcurve" smooth="yes"/>
      <point x="200" y="17" type="line"/>
      <point x="264" y="17" type="line"/>
      <point x="264" y="0" type="line"/>
      <point x="11" y="0" type="line"/>
      <point x="11" y="17" type="line"/>
      <point x="74" y="17" type="line"/>
      <point x="74" y="510" type="line" smooth="yes"/>
      <point x="74" y="562"/>
      <point x="118" y="629"/>
      <point x="153" y="648" type="qcurve" smooth="yes"/>
      <point x="170" y="658"/>
      <point x="209" y="670"/>
      <point x="229" y="674" type="qcurve"/>
      <point x="269" y="680"/>
      <point x="525" y="680" type="qcurve" smooth="yes"/>
      <point x="603" y="680" type="line"/>
      <point x="603" y="645" type="line"/>
      <point x="491" y="555"/>
      <point x="373" y="458"/>
      <point x="365" y="450" type="qcurve" smooth="yes"/>
      <point x="349" y="434"/>
    </contour>
  </outline>
</glyph>
<glyph name="guilsinglleft" format="2">
  <advance width="212"/>
  <unicode hex="2039"/>
  <outline>
    <contour>
      <point x="189" y="494" type="line"/>
      <point x="198" y="488" type="line"/>
      <point x="187" y="469"/>
      <point x="168" y="435"/>
      <point x="159" y="418" type="qcurve" smooth="yes"/>
      <point x="143" y="390"/>
      <point x="111" y="333"/>
      <point x="103" y="318" type="qcurve"/>
      <point x="107" y="310"/>
      <point x="119" y="288"/>
      <point x="127" y="274" type="qcurve" smooth="yes"/>
      <point x="131" y="268"/>
      <point x="132" y="265" type="qcurve" smooth="yes"/>
      <point x="133" y="263" type="line"/>
      <point x="133" y="262" type="line"/>
      <point x="134" y="262" type="line"/>
      <point x="134" y="261" type="line"/>
      <point x="135" y="260" type="line"/>
      <point x="135" y="259" type="line"/>
      <point x="136" y="258" type="line"/>
      <point x="136" y="257" type="line"/>
      <point x="137" y="257" type="line"/>
      <point x="137" y="256" type="line"/>
      <point x="138" y="255" type="line"/>
      <point x="138" y="254" type="line"/>
      <point x="139" y="254"/>
      <point x="139" y="253" type="qcurve"/>
      <point x="140" y="252" type="line"/>
      <point x="152" y="231" type="line"/>
      <point x="153" y="229" type="line" smooth="yes"/>
      <point x="154" y="226"/>
      <point x="158" y="220" type="qcurve"/>
      <point x="159" y="218" type="line" smooth="yes"/>
      <point x="168" y="201"/>
      <point x="187" y="167"/>
      <point x="198" y="148" type="qcurve"/>
      <point x="189" y="142" type="line"/>
      <point x="27" y="274" type="line"/>
      <point x="16" y="296"/>
      <point x="16" y="342"/>
      <point x="27" y="362" type="qcurve"/>
    </contour>
  </outline>
</glyph>
<glyph name="guilsinglright" format="2">
  <advance width="212"/>
  <unicode hex="203A"/>
  <outline>
    <contour>
      <point x="187" y="362" type="line"/>
      <point x="198" y="342"/>
      <point x="198" y="296"/>
      <point x="187" y="274" type="qcurve"/>
      <point x="25" y="142" type="line"/>
      <point x="16" y="148" type="line"/>
      <point x="27" y="167"/>
      <point x="46" y="201"/>
      <point x="55" y="218" type="qcurve"/>
      <point x="67" y="239" type="line"/>
      <point x="68" y="240" type="line"/>
      <point x="73" y="248"/>
      <point x="82" y="266"/>
      <point x="87" y="274" type="qcurve" smooth="yes"/>
      <point x="95" y="288"/>
      <point x="107" y="310"/>
      <point x="111" y="318" type="qcurve"/>
      <point x="103" y="333"/>
      <point x="71" y="390"/>
      <point x="55" y="418" type="qcurve" smooth="yes"/>
      <point x="46" y="435"/>
      <point x="27" y="469"/>
      <point x="16" y="488" type="qcurve"/>
      <point x="25" y="494" type="line"/>
    </contour>
  </outline>
</glyph>
<glyph name="trademark" format="2">
  <advance width="593"/>
  <unicode hex="2122"/>
  <outline>
    <contour>
      <point x="109" y="652" type="line"/>
      <point x="103" y="652" type="line" smooth="yes"/>
      <point x="81" y="652"/>
      <point x="52" y="645"/>
      <point x="35" y="626"/>
      <point x="28" y="593"/>
      <point x="28" y="566" type="qcurve"/>
      <point x="19" y="566" type="line"/>
      <point x="20" y="590"/>
      <point x="21" y="636"/>
      <point x="22" y="659" type="qcurve"/>
      <point x="251" y="659" type="line"/>
      <point x="252" y="636"/>
      <point x="252" y="590"/>
      <point x="253" y="566" type="qcurve"/>
      <point x="245" y="566" type="line"/>
      <point x="245" y="594"/>
      <point x="238" y="628"/>
      <point x="220" y="646"/>
      <point x="189" y="652"/>
      <point x="164" y="652" type="qcurve"/>
      <point x="164" y="358" type="line"/>
      <point x="196" y="358" type="line"/>
      <point x="196" y="350" type="line"/>
      <point x="76" y="350" type="line"/>
      <point x="76" y="358" type="line"/>
      <point x="109" y="358" type="line"/>
    </contour>
    <contour>
      <point x="273" y="358" type="line" smooth="yes"/>
      <point x="284" y="358"/>
      <point x="302" y="362"/>
      <point x="304" y="374" type="qcurve"/>
      <point x="304" y="381"/>
      <point x="306" y="431"/>
      <point x="306" y="465" type="qcurve" smooth="yes"/>
      <point x="306" y="475" type="line"/>
      <point x="306" y="476" type="line"/>
      <point x="306" y="478" type="line"/>
      <point x="306" y="479" type="line"/>
      <point x="306" y="481" type="line"/>
      <point x="306" y="482" type="line"/>
      <point x="306" y="484" type="line"/>
      <point x="306" y="485" type="line"/>
      <point x="306" y="510" type="line"/>
      <point x="306" y="511" type="line"/>
      <point x="306" y="512" type="line"/>
      <point x="306" y="537"/>
      <point x="306" y="587"/>
      <point x="305" y="626"/>
      <point x="303" y="651"/>
      <point x="302" y="652" type="qcurve"/>
      <point x="269" y="652" type="line"/>
      <point x="269" y="659" type="line"/>
      <point x="358" y="659" type="line"/>
      <point x="431" y="450" type="line"/>
      <point x="503" y="659" type="line"/>
      <point x="579" y="659" type="line"/>
      <point x="579" y="652" type="line"/>
      <point x="554" y="652" type="line"/>
      <point x="554" y="358" type="line"/>
      <point x="579" y="358" type="line"/>
      <point x="579" y="350" type="line"/>
      <point x="472" y="350" type="line"/>
      <point x="472" y="358" type="line"/>
      <point x="498" y="358" type="line"/>
      <point x="499" y="606" type="line"/>
      <point x="495" y="607" type="line"/>
      <point x="484" y="575"/>
      <point x="463" y="513"/>
      <point x="452" y="481" type="qcurve" smooth="yes"/>
      <point x="448" y="470"/>
      <point x="440" y="446"/>
      <point x="436" y="434" type="qcurve"/>
      <point x="432" y="426" type="line" smooth="yes"/>
      <point x="431" y="424"/>
      <point x="431" y="422"/>
      <point x="430" y="420" type="qcurve" smooth="yes"/>
      <point x="429" y="417" type="line"/>
      <point x="429" y="416" type="line"/>
      <point x="427" y="411" type="line"/>
      <point x="427" y="410"/>
      <point x="426" y="409" type="qcurve"/>
      <point x="426" y="406" type="line"/>
      <point x="425" y="406"/>
      <point x="425" y="405" type="qcurve"/>
      <point x="424" y="402" type="line"/>
      <point x="424" y="401" type="line"/>
      <point x="422" y="396" type="line" smooth="yes"/>
      <point x="421" y="394"/>
      <point x="421" y="392"/>
      <point x="420" y="390" type="qcurve" smooth="yes"/>
      <point x="419" y="388" type="line"/>
      <point x="419" y="386"/>
      <point x="418" y="385" type="qcurve"/>
      <point x="418" y="383" type="line"/>
      <point x="417" y="381"/>
      <point x="416" y="377"/>
      <point x="415" y="375" type="qcurve" smooth="yes"/>
      <point x="414" y="371" type="line"/>
      <point x="413" y="370"/>
      <point x="413" y="369"/>
      <point x="412" y="368" type="qcurve"/>
      <point x="412" y="366" type="line"/>
      <point x="411" y="365"/>
      <point x="411" y="364" type="qcurve"/>
      <point x="410" y="361" type="line" smooth="yes"/>
      <point x="409" y="359"/>
      <point x="409" y="357"/>
      <point x="408" y="355" type="qcurve"/>
      <point x="317" y="613" type="line"/>
      <point x="314" y="612" type="line"/>
      <point x="314" y="395" type="line"/>
      <point x="314" y="394" type="line"/>
      <point x="314" y="393" type="line"/>
      <point x="314" y="390" type="line"/>
      <point x="314" y="389" type="line"/>
      <point x="314" y="378" type="line"/>
      <point x="314" y="377" type="line"/>
      <point x="314" y="376" type="line"/>
      <point x="314" y="372" type="line"/>
      <point x="316" y="364"/>
      <point x="330" y="358"/>
      <point x="339" y="358" type="qcurve"/>
      <point x="340" y="358" type="line"/>
      <point x="341" y="358" type="line"/>
      <point x="342" y="358" type="line"/>
      <point x="343" y="358" type="line"/>
      <point x="349" y="358" type="line"/>
      <point x="353" y="358" type="line"/>
      <point x="353" y="350" type="line"/>
      <point x="267" y="350" type="line"/>
      <point x="267" y="358" type="line"/>
      <point x="265" y="358" type="line"/>
      <point x="267" y="361" type="line"/>
      <point x="267" y="358" type="line"/>
    </contour>
  </outline>
</glyph>
<glyph name="guillemetright" format="2">
  <advance width="365"/>
  <outline>
    <contour>
      <point x="170" y="142" type="line"/>
      <point x="161" y="148" type="line"/>
      <point x="172" y="167"/>
      <point x="191" y="201"/>
      <point x="200" y="218" type="qcurve"/>
      <point x="212" y="239" type="line"/>
      <point x="213" y="240" type="line"/>
      <point x="218" y="248"/>
      <point x="227" y="266"/>
      <point x="232" y="274" type="qcurve" smooth="yes"/>
      <point x="240" y="288"/>
      <point x="252" y="310"/>
      <point x="256" y="318" type="qcurve"/>
      <point x="248" y="333"/>
      <point x="216" y="390"/>
      <point x="200" y="418" type="qcurve" smooth="yes"/>
      <point x="191" y="435"/>
      <point x="172" y="469"/>
      <point x="161" y="488" type="qcurve"/>
      <point x="170" y="494" type="line"/>
      <point x="332" y="362" type="line"/>
      <point x="343" y="340"/>
      <point x="343" y="294"/>
      <point x="332" y="274" type="qcurve"/>
    </contour>
    <contour>
      <point x="25" y="142" type="line"/>
      <point x="16" y="148" type="line"/>
      <point x="27" y="167"/>
      <point x="46" y="201"/>
      <point x="55" y="218" type="qcurve"/>
      <point x="67" y="239" type="line"/>
      <point x="68" y="240" type="line"/>
      <point x="73" y="248"/>
      <point x="82" y="266"/>
      <point x="87" y="274" type="qcurve" smooth="yes"/>
      <point x="95" y="288"/>
      <point x="107" y="310"/>
      <point x="111" y="318" type="qcurve"/>
      <point x="103" y="333"/>
      <point x="71" y="390"/>
      <point x="55" y="418" type="qcurve" smooth="yes"/>
      <point x="46" y="435"/>
      <point x="27" y="469"/>
      <point x="16" y="488" type="qcurve"/>
      <point x="25" y="494" type="line"/>
      <point x="187" y="362" type="line"/>
      <point x="198" y="340"/>
      <point x="198" y="294"/>
      <point x="187" y="274" type="qcurve"/>
    </contour>
  </outline>
</glyph>
<glyph name="ringcomb" format="2">
  <advance width="403"/>
  <outline>
    <contour>
      <point x="113" y="791" type="qcurve" smooth="yes"/>
      <point x="113" y="823"/>
      <point x="158" y="868"/>
      <point x="192" y="868" type="qcurve" smooth="yes"/>
      <point x="225" y="868"/>
      <point x="270" y="823"/>
      <point x="270" y="791" type="qcurve" smooth="yes"/>
      <point x="270" y="760"/>
      <point x="225" y="716"/>
      <point x="192" y="716" type="qcurve" smooth="yes"/>
      <point x="158" y="716"/>
      <point x="113" y="760"/>
    </contour>
    <contour>
      <point x="158" y="792" type="qcurve" smooth="yes"/>
      <point x="158" y="778"/>
      <point x="177" y="759"/>
      <point x="191" y="759" type="qcurve" smooth="yes"/>
      <point x="205" y="759"/>
      <point x="223" y="778"/>
      <point x="223" y="792" type="qcurve" smooth="yes"/>
      <point x="223" y="806"/>
      <point x="205" y="827"/>
      <point x="191" y="827" type="qcurve" smooth="yes"/>
      <point x="177" y="827"/>
      <point x="158" y="806"/>
    </contour>
  </outline>
</glyph>
